<?xml version="1.0" encoding="UTF-8"?>
<svg width="244px" height="118px" viewBox="0 0 244 118" version="1.1" xmlns="http://www.w3.org/2000/svg" xmlns:xlink="http://www.w3.org/1999/xlink">
    <defs>
        <path d="M82.095,0.068 C127.23,0.068 163.822,5.315 163.822,11.79 C163.822,18.261 127.23,23.51 82.095,23.51 C36.96,23.51 0.369,18.261 0.369,11.79" id="path-1"></path>
        <linearGradient x1="50.0003059%" y1="-3.53340159%" x2="50.0003059%" y2="103.536814%" id="linearGradient-3">
            <stop stop-color="#F4B727" offset="0%"></stop>
            <stop stop-color="#FFF101" offset="100%"></stop>
        </linearGradient>
        <path d="M135.183,0.68 C131.625,8.176 98.331,13.339 56.614,13.339 C34.685,13.339 14.855,11.794 0.615,9.299 C0.753,9.312 0.894,9.322 1.032,9.332 C15.132,11.588 34.353,12.304 55.372,12.304 C97.076,12.304 128.398,7.628 132.869,0.79" id="path-4"></path>
        <path d="M1.4153037,0.453495046 C10.7128696,0.507224941 27.2043171,4.92401829 29.864,8.513 L29.864,8.513 L30.165,8.733 C29.487,8.627 28.712,8.821 27.844,8.844 C23.046,5.198 9.376,1.227 0.094,0.478 C0.462,0.462 0.847,0.453 1.245,0.453 L1.114,0.454" id="path-6"></path>
        <path d="M112.561,0.776 C121.906,1.032 134.577,3.724 134.293,7.4 C134.124,9.498 130.133,11.91 122.852,13.772 C108.732,17.383 83.579,19.83 56.423,19.83 C34.491,19.83 14.661,18.284 0.422,15.789 C12.443,16.767 26.409,17.322 41.303,17.322 C86.384,17.322 122.926,12.213 122.926,5.908" id="path-8"></path>
        <path d="M79.236,0.082 C101.168,0.082 120.994,1.63 135.239,4.121 C135.098,4.111 134.955,4.101 134.817,4.09 C120.719,1.835 101.497,1.119 80.477,1.119 C38.772,1.119 7.449,5.791 2.983,12.631 C2.1,12.631 1.217,12.74 0.665,12.74" id="path-10"></path>
        <path d="M78.427,0.588 C100.357,0.588 120.187,2.138 134.429,4.63 C122.404,3.656 108.443,3.096 93.546,3.096 C48.465,3.096 11.921,8.208 11.921,14.511 C11.921,16.529 15.726,18.001 22.286,19.643 C12.946,19.387 0.27,16.696 0.558,13.02 C0.722,10.922 4.716,8.509 12,6.648" id="path-12"></path>
    </defs>
    <g stroke="none" stroke-width="1" fill="none" fill-rule="evenodd">
        <g transform="translate(-99.000000, -63.000000)">
            <g transform="translate(100.000000, 65.000000)">
                <path d="M0.157,57.545 C0.157,25.832 54.189,0.12 120.844,0.12 C187.5,0.12 241.534,25.832 241.534,57.545 C241.534,89.26 187.5,114.97 120.844,114.97 C54.189,114.97 0.157,89.26 0.157,57.545" fill="#BE232A"></path>
                <path d="M0.157,57.545 C0.157,25.832 54.189,0.12 120.844,0.12 C187.5,0.12 241.534,25.832 241.534,57.545 C241.534,89.26 187.5,114.97 120.844,114.97 C54.189,114.97 0.157,89.26 0.157,57.545 Z" stroke="#060403" stroke-width="1.405"></path>
                <path d="M170.399,11.5379795 C172.109,11.542 172.59,12.655 172.579,13.256 C172.568,13.825 172.15,14.368 171.606,14.693 C171.348,14.829 171.286,14.94 171.378,14.993 C171.533,15.129 171.466,15.509 171.396,15.782 C170.772,18.661 169.953,21.544 169.494,22.682 C169.001,23.927 168.247,24.999 166.715,26.002 C165.37,26.898 163.265,27.453 162.446,27.4500121 C162,27.4500121 161.436,27.422 161.086,27.34 C160.773,27.257 160.555,27.203 160.051,27.203 C159.324,27.2 157.908,26.709 157.922882,25.976 C157.936,25.321 159.18,24.564 159.846,24.564 C160.317,24.564 160.883,24.865 161.284,25.163 C161.723,25.465 162.225,25.765 162.793,25.767 C163.708,25.767 165.024,25.312 166.436,23.542 C166.854,23.018 167.216,22.099 167.403,21.349 C167.716,20.136 167.884,19.391 167.955,19.011 C167.99,18.791 167.863,18.819 167.671,18.955 C167.29,19.227 166.358,19.905 165.271,20.474 C164.601,20.827 163.232,21.424 162.347,21.42 C161.591,21.419 160.976,20.523 160.99,19.761 C161.011,18.699 161.703,17.069 163.187,15.44 C164.671,13.811 166.428,12.837 167.513,12.294 C168.403,11.861 169.707,11.535 170.399,11.5379795 M164.108946,18.434 C164.106,18.678 164.229,18.8670006 164.448,18.8670006 C165.206,18.868 166.814,17.515 167.263,17.105 C168.353,16.211 168.775,15.587 168.972,15.341 C169.33,14.907 169.71,14.692 170.06,14.61 C170.19,14.583 170.347,14.555 170.474,14.474 C170.537,14.419 170.635029,14.284 170.635029,14.175 C170.639,13.985 170.234,13.66 169.569,13.6569825 C168.274,13.653 166.842,14.333 165.68,15.58 C165.003,16.313 164.122,17.726 164.108946,18.434" fill="#A01E26"></path>
                <g transform="translate(69.000000, 86.000000)">
                    <mask fill="white">
                        <use xlink:href="#path-1"></use>
                    </mask>
                    <g></g>
                    <path d="M0.369,11.79 C0.369,18.261 36.96,23.51 82.095,23.51 C127.23,23.51 163.822,18.261 163.822,11.79 C163.822,5.315 127.23,0.068 82.095,0.068 C36.96,0.068 0.369,5.315 0.369,11.79" fill="url(#linearGradient-3)" mask="url(#mask-2)"></path>
                </g>
                <path d="M233.328,97.721 C229.767,105.216 196.823,110.098 155.111,110.098 C133.181,110.098 113.349,108.554 99.108,106.06 C111.133,107.034 125.095,107.596 139.991,107.596 C185.07,107.596 221.617,102.482 221.617,96.178 C221.617,94.163 217.875,92.266 211.315,90.624 C220.656,90.881 231.465,95.497 233.328,97.721" fill="#F4B727"></path>
                <g transform="translate(99.000000, 97.000000)">
                    <mask fill="white">
                        <use xlink:href="#path-4"></use>
                    </mask>
                    <g></g>
                    <path d="M132.869,0.79 C128.398,7.628 97.076,12.304 55.372,12.304 C34.353,12.304 15.132,11.588 1.032,9.332 C0.894,9.322 0.753,9.312 0.615,9.299 C14.855,11.794 34.685,13.339 56.614,13.339 C98.331,13.339 131.625,8.176 135.183,0.68 C134.63,0.68 133.752,0.79 132.869,0.79" mask="url(#mask-5)"></path>
                </g>
                <g id="Group-14" transform="translate(204.000000, 89.000000)">
                    <mask id="mask-7" fill="white">
                        <use xlink:href="#path-6"></use>
                    </mask>
                    <g id="Clip-13"></g>
                    <path d="M0.094,0.478 C9.376,1.227 23.046,5.198 27.844,8.844 C28.712,8.821 29.487,8.627 30.165,8.733 L29.864,8.513 C27.188,4.902 10.51,0.453 1.245,0.453 C0.847,0.453 0.462,0.462 0.094,0.478" id="Fill-12" mask="url(#mask-7)"></path>
                </g>
                <g id="Group-17" transform="translate(90.000000, 89.000000)">
                    <mask id="mask-9" fill="white">
                        <use xlink:href="#path-8"></use>
                    </mask>
                    <g id="Clip-16"></g>
                    <path d="M122.926,5.908 C122.926,12.213 86.384,17.322 41.303,17.322 C26.409,17.322 12.443,16.767 0.422,15.789 C14.661,18.284 34.491,19.83 56.423,19.83 C83.579,19.83 108.732,17.383 122.852,13.772 C130.133,11.91 134.124,9.498 134.293,7.4 C134.577,3.724 121.906,1.032 112.561,0.776 C119.122,2.422 122.926,3.891 122.926,5.908" id="Fill-15" mask="url(#mask-9)"></path>
                </g>
                <path d="M117.62,13.473 C118.032,13.475 118.277,13.8 118.365,14.044 C118.455,14.318 118.355,14.672 118.162,14.942 C118.032,15.134 117.512,15.893 117.058,16.327 C116.095,17.278 115.644,17.794 115.098,18.17 C114.617,18.524 114.138,18.796 113.886,18.794011 C113.632,18.794011 113.579,18.415 113.68,18.061 C113.882,17.328 114.797,15.806 115.89,14.721 C116.826,13.797 117.335,13.473 117.62,13.473 M118.825,11.4359932 C118.477,11.435 117.118,11.542 115.356,12.844 C114.011,13.876 112.66,15.206 111.809,16.644 C110.766,18.301 110.559,19.17 110.551,19.715 C110.533,20.748 111.754,21.322 112.133,21.322 C112.795,21.323 113.464,21.078 114.328,20.536 C115.222,19.994 116.919,18.692 117.306,18.311 C117.5,18.15 117.563,18.15 117.591,18.395 C117.586,18.694 117.58,18.939 117.635,19.346 C117.742,20.46 118.579,21.332 119.748,21.3350047 C121.736,21.339 124.851,18.789 126.285,16.426 C126.58,15.909 126.747,15.418 126.593,15.175 C126.47,14.983 126.153,14.956 125.802,15.226 C123.764,17.59 121.587,19.244 120.86,19.244 C120.388,19.242 120.078,18.86 120.097,17.91 C120.127,16.278 120.726,14.594 121.58,12.992 C121.677,12.745 121.842,12.419 120.965,11.984 C120.683,11.821 120.464,11.874 120.206,12.065 C120.014,12.173 119.856,12.173 119.797,12.011 C119.609,11.792 119.27,11.438 118.825,11.4359932" id="Fill-18" fill="#A01E26"></path>
                <path d="M125.928,21.427 C126.466,21.427 127.066,21.321 127.86,21.051 C129.705,20.429 132.691,17.986 133.956,16.275 C134.377,15.705 134.477,15.268 134.322,15.024 C134.202,14.836 133.887,14.807 133.503,15.158 C131.7,16.869 128.526,19.311 127.514,19.308 C126.915,19.308 126.857,18.925 127.189,18.086 C127.987,15.992 128.806,14.473 129.815,13.006 C130.139,12.488 129.836,11.892 129.427,11.618 C129.273,11.508 129.085,11.456 128.896,11.453 C127.981,11.453 125.956,13.27 125.427,14.384 C125.229,14.791 125.291,15.036 125.41,15.282 C125.561,15.526 125.561,15.689 125.396,16.069 C125.133,16.558 124.567,18.054 124.369,18.705 C124.132,19.357 124.124,19.847 124.399,20.337 C124.827,21.181 125.455,21.425 125.928,21.427 M130.168,5.965 C129.475,5.961 129.088,6.26 129.01,7.103 C128.964,7.73 129.051,8.164 129.143,8.464 C129.29,8.954 129.788,9.444 130.477,9.66 C131.073,9.854 131.514,9.828 131.525,9.283 C131.539,8.631 131.549,7.951 131.758,7.027 C131.93,6.347 131.083,5.965 130.168,5.965" id="Fill-19" fill="#A01E26"></path>
                <path d="M68.523,97.701 C72.08,90.204 105.025,85.32 146.737,85.32 C168.668,85.32 188.501,86.865 202.739,89.357 C190.719,88.384 176.754,87.825 161.861,87.825 C116.778,87.825 80.235,92.937 80.235,99.244 C80.235,101.258 83.973,103.152 90.534,104.796 C81.194,104.541 70.385,99.925 68.523,97.701" id="Fill-20" fill="#F4B727"></path>
                <g id="Group-23" transform="translate(67.000000, 85.000000)">
                    <mask id="mask-11" fill="white">
                        <use xlink:href="#path-10"></use>
                    </mask>
                    <g id="Clip-22"></g>
                    <path d="M0.665,12.74 C1.217,12.74 2.1,12.631 2.983,12.631 C7.449,5.791 38.772,1.119 80.477,1.119 C101.497,1.119 120.719,1.835 134.817,4.09 C134.955,4.101 135.098,4.111 135.239,4.121 C120.994,1.63 101.168,0.082 79.236,0.082 C37.52,0.082 4.228,5.245 0.665,12.74" id="Fill-21" mask="url(#mask-11)"></path>
                </g>
                <path d="M67.689,97.688 C68.364,97.793 69.136,97.598 70.004,97.578 C71.193,100.152 88.476,105.194 97.758,105.941 C88.796,106.351 70.778,101.673 67.985,97.909 L67.689,97.688" id="Fill-24" fill="#8A4E21"></path>
                <g id="Group-27" transform="translate(77.000000, 86.000000)">
                    <mask id="mask-13" fill="white">
                        <use xlink:href="#path-12"></use>
                    </mask>
                    <g id="Clip-26"></g>
                    <path d="M12,6.648 C4.716,8.509 0.722,10.922 0.558,13.02 C0.27,16.696 12.946,19.387 22.286,19.643 C15.726,18.001 11.921,16.529 11.921,14.511 C11.921,8.208 48.465,3.096 93.546,3.096 C108.443,3.096 122.404,3.656 134.429,4.63 C120.187,2.138 100.357,0.588 78.427,0.588 C51.272,0.588 26.116,3.039 12,6.648" id="Fill-25" mask="url(#mask-13)"></path>
                </g>
                <path d="M139.091,11.4439984 C138.049,11.443 136.396,11.901 135.402,12.634 C134.476,13.257 133.474,14.317 133.459,15.296 C133.452,15.649 133.597,16.112 133.753,16.437 C133.967,16.845 134.457,17.607 134.764,17.963 C135.2,18.48 135.473,18.969 135.468,19.241 C135.464,19.406 135.207,19.621 134.795,19.619 C134.356,19.619 134.168,19.565 133.852,19.457 C133.572,19.265 133.348,19.265 133.064,19.4 C132.777,19.508 132.362,19.724 131.912,20.16 C131.685,20.32 131.652,20.54 131.647,20.728 C131.763,21.329 132.959,21.7380357 133.811,21.7380357 C134.157,21.74 134.539,21.658 135.013,21.497 C135.715,21.252 136.924,20.684 137.342,20.359 C137.725,20.06 138.151,19.381 138.158,18.973 C138.171,18.267 137.713,17.479 137.003,16.687 C136.474,16.063 136.077,15.464 136.088,14.946 C136.101,14.103 138.295,13.4 140.256,13.404 C140.791,13.405 141.267,13.187 141.281,12.672 C141.288,12.342 141.164,12.074 140.756,11.827 C140.351,11.583 139.878,11.446 139.091,11.4439984" id="Fill-28" fill="#A01E26"></path>
                <path d="M142.336,21.4550069 C142.875,21.456 143.477,21.348 144.273,21.078 C146.117,20.454 149.098,18.013 150.364,16.302 C150.785,15.734 150.888,15.298 150.738,15.053 C150.61,14.863 150.296,14.836 149.912,15.187 C148.108,16.895 144.933,19.337 143.923,19.337 C143.323,19.334 143.271,18.954 143.601,18.112 C144.396,16.022 145.216,14.499 146.223,13.033 C146.552,12.517 146.244,11.919 145.84,11.646 C145.681,11.537 145.494,11.4819984 145.305,11.4819984 C144.388,11.48 142.367,13.298 141.836,14.411 C141.639,14.82 141.699,15.065 141.819,15.309 C141.972,15.555 141.972,15.717 141.805,16.097 C141.544,16.587 140.977,18.082 140.777,18.733 C140.543,19.384 140.533,19.874 140.807,20.364 C141.236,21.208 141.864,21.4550069 142.336,21.4550069 M146.576,5.99199007 C145.881,5.99 145.497,6.29 145.418,7.133 C145.377,7.757 145.462,8.192 145.552,8.49199007 C145.699,8.981 146.196,9.471 146.885,9.691 C147.486,9.879 147.927,9.855 147.937,9.312 C147.948,8.659 147.965,7.98 148.167,7.054 C148.339,6.376 147.495,5.993 146.576,5.99199007" id="Fill-29" fill="#A01E26"></path>
                <path d="M152.541,11.003 C151.971,11.003 151.237,11.274 150.682,12.279 C150.128,13.23 149.099,15.866 148.25,19.045 C148.082,19.59 148.101,20.186 148.317,20.404 C148.563,20.704 148.846,20.923 149.257,20.923 C149.449,20.923 149.764,20.841 150.118,20.38 C151.577,18.534 153.188,16.796 155.05,15.25 C155.529,14.87 155.69,14.762 155.784,14.87 C155.846,14.952 155.779,15.142 155.646,15.442 C155.45,15.905 155.215,16.61 154.94,17.643 C154.23,20.279 155.279,21.694 156.856,21.6980026 C158.468,21.7 161.143,20.563 163.839,16.68 C164.359,16.001 164.396,15.539 164.243,15.346 C164.12,15.213 163.866,15.265 163.705,15.429 C161.771,17.354 159.04,19.797 157.904,19.795 C157.397,19.794 156.9,19.25 157.409,17.619 C157.744,16.532 158.372,15.066 158.895,14.116 C159.19,13.57 159.516,13.11 159.646,12.864 C159.877,12.349 159.949,11.966 159.388,11.48 C159.139,11.289 158.793,11.178 158.413,11.178 C158.1,11.178 157.872,11.339 157.679,11.582 C157.514,11.857 157.293,12.018 157.165,12.1 C156.877,12.235 156.619,12.371 155.756,12.913 C154.734,13.51 152.811,15.084 152.231,15.628 C151.94,15.954 151.721,15.843 151.851,15.544 C152.051,15.082 152.355,14.103 152.777,13.506 C153.068,13.072 153.355,12.799 153.643,12.799 C153.834,12.802 154.024,12.639 154.027,12.45 C154.039,11.877 153.425,11.007 152.541,11.003" id="Fill-30" fill="#A01E26"></path>
                <path d="M110.081,9.407 C109.385,9.194 108.496,9.156 107.714,9.154 C107.266,9.154 106.334,9.167 105.851,9.209 L105.662,9.226 L105.601,9.396 C104.812,11.564 104.096,13.03 103.482,14.658 L103.342,15.029 L103.76,15.032 C104.12,15.032 105.782,14.596 107.163,14.008 C109.157,13.161 111.358,11.707 111.376,10.858 C111.389,10.044 110.783,9.619 110.081,9.407 M97.737,10.023 C97.809,9.763 97.95,9.427 98.132,9.071 C98.515,8.313 98.978,7.638 99.153,7.546 C99.711,7.247 100.081,7.151 100.549,7.091 C101.053,7.027 101.652,7.009 102.627,6.87 C103.988,6.678 107.769,6.589 108.161,6.589 C111.075,6.633 113.237,7.789 114.074,9.033 C114.457,9.64 114.495,10.202 114.481,10.774 C114.443,12.878 111.305,14.634 109.076,15.625 C108.737,15.769 108.23,15.937 107.78,16.079 L107.17,16.272 L106.954,16.345 L106.8,16.403 L106.483,16.556 L106.699,16.824 C108.358,18.905 109.323,20.245 111.095,22.226 C112.176,23.436 112.651,23.957 113.666,24.921 C113.402,25.092 111.313,26.377 110.762,25.866 C107.609,22.939 105.008,20.087 102.998,17.119 L102.691,16.659 L102.479,17.167 C101.883,18.614 99.101,25.145 98.608,25.544 C98.531,25.614 98.484,25.633 98.428,25.651 C98.306,25.692 98.15,25.726 97.973,25.753 C97.597,25.812 97.124,25.839 96.675,25.822 C96.216,25.804 95.807,25.743 95.548,25.642 C95.418,25.592 95.36,25.542 95.338,25.517 C95.849,24.162 100.788,12.674 101.929,9.928 L102.111,9.485 L101.617,9.547 C100.407,9.698 99.271,9.842 97.737,10.023" id="Fill-31" fill="#A01E26"></path>
                <path d="M107.734,8.285 C107.036,8.074 106.147,8.035 105.364,8.035 C104.919,8.035 103.987,8.045 103.501,8.091 L103.312,8.105 L103.25,8.279 C102.464,10.446 101.746,11.908 101.134,13.536 L100.993,13.91 L101.408,13.91 C101.772,13.91 103.435,13.475 104.815,12.886 C106.807,12.04 109.011,10.586 109.027,9.738 C109.042,8.925 108.435,8.498 107.734,8.285 M95.386,8.903 C95.459,8.642 95.602,8.306 95.783,7.949 C96.164,7.191 96.63,6.518 96.803,6.425 C97.362,6.125 97.733,6.03 98.2,5.971 C98.704,5.908 99.303,5.888 100.278,5.75 C101.639,5.557 105.422,5.468 105.81,5.468 C108.728,5.516 110.889,6.669 111.726,7.913 C112.107,8.518 112.144,9.08 112.135,9.654 C112.093,11.759 108.956,13.514 106.724,14.503 C106.389,14.649 105.88,14.815 105.432,14.959 L104.823,15.152 L104.604,15.225 L104.451,15.284 L104.135,15.435 L104.349,15.703 C106.01,17.785 106.975,19.123 108.746,21.105 C109.827,22.315 110.299,22.836 111.318,23.799 C111.054,23.971 108.965,25.257 108.414,24.745 C105.261,21.819 102.66,18.967 100.651,15.997 L100.341,15.539 L100.13,16.05 C99.533,17.492 96.754,24.027 96.259,24.424 C96.181,24.495 96.133,24.512 96.078,24.532 C95.958,24.572 95.8,24.605 95.625,24.634 C95.245,24.691 94.775,24.718 94.325,24.701 C93.865,24.683 93.459,24.621 93.201,24.522 C93.071,24.471 93.01,24.424 92.99,24.396 C93.501,23.043 98.439,11.553 99.58,8.806 L99.763,8.364 L99.27,8.426 C98.058,8.576 96.921,8.72 95.386,8.903" id="Fill-32" fill="#FFF101"></path>
                <path d="M116.22,12.419 C116.628,12.419 116.878,12.749 116.968,12.992 C117.057,13.264 116.954,13.619 116.762,13.89 C116.628,14.079 116.109,14.84 115.661,15.275 C114.694,16.224 114.241,16.738 113.697,17.118 C113.217,17.472 112.738,17.742 112.485,17.742 C112.232,17.742 112.177,17.362 112.277,17.01 C112.484,16.275 113.395,14.754 114.492,13.669 C115.425,12.745 115.935,12.419 116.22,12.419 M117.427,10.383 C117.079,10.383 115.72,10.49 113.958,11.791 C112.61,12.823 111.258,14.152 110.409,15.59 C109.368,17.247 109.161,18.116 109.152,18.661 C109.131,19.695 110.352,20.269 110.731,20.269 C111.397,20.269 112.065,20.026 112.928,19.484 C113.823,18.943 115.52,17.64 115.908,17.259 C116.099,17.096 116.164,17.096 116.192,17.341 C116.185,17.64 116.179,17.886 116.234,18.295 C116.342,19.408 117.18,20.279 118.347,20.2820026 C120.336,20.285 123.449,17.736 124.886,15.371 C125.177,14.856 125.346,14.366 125.194,14.119 C125.067,13.931 124.752,13.904 124.402,14.175 C122.368,16.536 120.187,18.191 119.46,18.191 C118.985,18.188 118.678,17.808 118.694,16.854 C118.726,15.226 119.325,13.54 120.18,11.937 C120.278,11.692 120.442,11.367 119.566,10.931 C119.284,10.766 119.061,10.822 118.804,11.01 C118.612,11.12 118.454,11.12 118.396,10.956 C118.211,10.736 117.87,10.383 117.427,10.383" id="Fill-33" fill="#FFF101"></path>
                <path d="M124.525,20.3730068 C125.063,20.374 125.667,20.264 126.459,19.996 C128.306,19.374 131.292,16.933 132.557,15.221 C132.975,14.652 133.078,14.216 132.928,13.971 C132.801,13.78 132.485,13.753 132.101,14.106 C130.299,15.816 127.124,18.257 126.116,18.255 C125.513,18.254 125.457,17.872 125.791,17.031 C126.59,14.94 127.405,13.416 128.413,11.951 C128.738,11.435 128.432,10.838 128.03,10.565 C127.871,10.454 127.505,10.3709998 127.319,10.3709998 C126.401,10.37 124.255,14.3709998 123.85,14.816 C123.477,15.231 123.168,16.998 122.968,17.652 C122.733,18.304 122.723,18.791 123,19.282 C123.424,20.129 124.053,20.3709998 124.525,20.3730068 M128.766,4.90999004 C128.073,4.908 127.686,5.207 127.608,6.051 C127.563,6.677 127.652,7.11 127.737,7.411 C127.888,7.9 128.386,8.389 129.078,8.608 C129.676,8.8 130.117,8.775 130.127,8.231 C130.14,7.576 130.15,6.898 130.36,5.975 C130.531,5.295 129.682,4.912 128.766,4.90999004" id="Fill-34" fill="#FFF101"></path>
                <path d="M137.689,10.391 C136.647,10.391 134.997,10.849 134.003,11.58 C133.075,12.204 132.073,13.261 132.057,14.243 C132.053,14.595 132.196,15.059 132.351,15.384 C132.564,15.792 133.055,16.556 133.366,16.91 C133.798,17.425 134.075,17.915 134.069,18.187 C134.065,18.35 133.808,18.567 133.397,18.565 C132.954,18.565 132.767,18.51 132.451,18.402 C132.169,18.212 131.95,18.212 131.663,18.345 C131.378,18.455 130.963,18.672 130.511,19.105 C130.288,19.268 130.25,19.486 130.247,19.675 C130.363,20.276 131.556,20.684 132.41,20.687 C132.755,20.687 133.14,20.605 133.616,20.444 C134.315,20.201 135.526,19.632 135.944,19.306 C136.328,19.008 136.749,18.329 136.759,17.921 C136.774,17.214 136.313,16.423 135.604,15.634 C135.077,15.007 134.679,14.409 134.685,13.894 C134.703,13.05 136.894,12.348 138.853,12.35 C139.392,12.35 139.869,12.134 139.878,11.618 C139.885,11.292 139.766,11.02 139.357,10.775 C138.95,10.529 138.48,10.392 137.689,10.391" id="Fill-35" fill="#FFF101"></path>
                <path d="M140.937,20.403 C141.475,20.403 142.076,20.295 142.871,20.024 C144.715,19.402 147.697,16.961 148.966,15.25 C149.384,14.681 149.49,14.245 149.335,13.999 C149.212,13.808 148.898,13.78 148.513,14.135 C146.71,15.843 143.537,18.286 142.529,18.285 C141.926,18.285 141.867,17.9 142.203,17.06 C142.998,14.966 143.816,13.447 144.826,11.981 C145.15,11.463 144.846,10.865 144.436,10.593 C144.284,10.483 143.821,10.5 143.632,10.5 C142.717,10.4990523 140.571,14.665 140.406,15.045 C140.142,15.534 139.577,17.026 139.378,17.682 C139.145,18.332 139.134,18.823 139.409,19.311 C139.838,20.155 140.462,20.4 140.937,20.403 M145.179,4.94 C144.483,4.936 144.097,5.236 144.019,6.078 C143.975,6.703 144.063,7.141 144.15,7.439 C144.3,7.929 144.794,8.419 145.486,8.637 C146.083,8.829 146.529,8.802 146.536,8.258 C146.549,7.606 146.562,6.925 146.768,6.001 C146.938,5.324 146.093,4.94 145.179,4.94" id="Fill-36" fill="#FFF101"></path>
                <path d="M151.138,9.952 C150.57,9.952 149.836,10.222 149.283,11.227 C148.725,12.175 147.697,14.812 146.85,17.993 C146.679,18.534 146.701,19.134 146.92,19.352 C147.166,19.652 147.448,19.868 147.854,19.868 C148.048,19.87 148.362,19.789 148.719,19.326 C150.176,17.482 151.79,15.745 153.651,14.198 C154.131,13.818 154.292,13.708 154.385,13.818 C154.446,13.901 154.378,14.088 154.247,14.388 C154.049,14.85 153.812,15.555 153.542,16.591 C152.829,19.227 153.878,20.641 155.457,20.6430059 C157.069,20.646 159.746,19.51 162.44,15.626 C162.958,14.946 162.999,14.484 162.845,14.294 C162.721,14.159 162.464,14.212 162.303,14.374 C160.374,16.302 157.64,18.745 156.504,18.744 C155.996,18.744 155.503,18.199 156.006,16.567 C156.342,15.48 156.972,14.014 157.497,13.062 C157.789,12.519 158.114,12.056 158.245,11.812 C158.474,11.297 158.547,10.916 157.987,10.425 C157.738,10.236 157.39,10.126 157.01,10.126 C156.695,10.122 156.379,10.377 156.119,10.555 C155.572,10.937 155.279,11.162 154.362,11.861 C153.421,12.57 151.41,14.03 150.83,14.571 C150.543,14.897 150.32,14.789 150.454,14.489 C150.656,14.029 150.954,13.05 151.375,12.454 C151.67,12.018 152.171,11.315 152.174,11.124 C152.187,10.553 152.023,9.952 151.138,9.952" id="Fill-37" fill="#FFF101"></path>
                <path d="M233.343,58.231 L233.75,58.231 C233.9,58.231 234.017,58.253 234.09,58.301 C234.165,58.35 234.203,58.422 234.203,58.518 C234.203,58.627 234.165,58.707 234.09,58.752 C234.014,58.801 233.883,58.824 233.706,58.824 L233.343,58.824 L233.343,58.231 Z M233.343,60.074 L233.343,59.174 L233.455,59.174 C233.594,59.174 233.701,59.214 233.784,59.289 C233.866,59.365 233.962,59.509 234.072,59.722 L234.254,60.074 L234.805,60.074 L234.549,59.633 C234.436,59.438 234.354,59.312 234.298,59.254 C234.244,59.195 234.172,59.149 234.082,59.115 C234.281,59.077 234.432,59.009 234.527,58.906 C234.627,58.804 234.678,58.67 234.678,58.5 C234.678,58.327 234.621,58.179 234.501,58.059 C234.386,57.939 234.199,57.879 233.942,57.879 L232.903,57.879 L232.903,60.074 L233.343,60.074 Z M232.862,57.13 C232.544,57.284 232.277,57.528 232.064,57.864 C231.85,58.2 231.742,58.568 231.742,58.97 C231.742,59.54 231.943,60.03 232.348,60.433 C232.752,60.836 233.24,61.038 233.812,61.038 C234.381,61.038 234.868,60.836 235.276,60.431 C235.68,60.028 235.882,59.54 235.882,58.97 C235.882,58.413 235.683,57.929 235.282,57.517 C234.881,57.106 234.373,56.903 233.757,56.903 C233.482,56.903 233.185,56.977 232.862,57.13 L232.862,57.13 Z M234.603,57.5 C234.858,57.635 235.07,57.833 235.235,58.098 C235.399,58.363 235.48,58.655 235.48,58.967 C235.48,59.425 235.317,59.818 234.99,60.143 C234.665,60.469 234.272,60.631 233.815,60.631 C233.36,60.631 232.966,60.469 232.643,60.143 C232.313,59.818 232.152,59.425 232.152,58.967 C232.152,58.527 232.311,58.138 232.626,57.805 C232.941,57.47 233.35,57.302 233.863,57.302 C234.094,57.302 234.344,57.368 234.603,57.5 L234.603,57.5 Z" id="Fill-38" fill="#060403"></path>
                <path d="M162.936,17.314 C162.951,16.605 163.829,15.193 164.507,14.461 C165.665,13.213 167.102,12.536 168.397,12.536 C169.059,12.538 169.463,12.864 169.463,13.056 C169.463,13.163 169.364,13.3 169.3,13.356 C169.168,13.434 169.012,13.463 168.885,13.488 C168.535,13.571 168.151,13.787 167.798,14.223 C167.602,14.466 167.18,15.091 166.087,15.987 C165.638,16.392 164.033,17.75 163.277,17.75 C163.053,17.75 162.93,17.558 162.936,17.314 M169.226,10.4179908 C168.531,10.416 167.232,10.74 166.337,11.175 C165.251,11.715 163.495,12.692 162.013,14.32 C160.531,15.949 159.831,17.578 159.813,18.639 C159.801,19.4 160.417,20.3 161.176,20.3 C162.06,20.301 163.428,19.707 164.098,19.353 C165.185,18.785 166.111,18.107 166.498,17.836 C166.69,17.699 166.814,17.674 166.78,17.891 C166.707,18.271 166.539,19.016 166.23,20.228 C166.039,20.978 165.68,21.899 165.262,22.422 C163.849,24.191 162.536,24.646 161.62,24.646 C161.049,24.644 160.549,24.343 160.112,24.045 C159.704,23.744 159.145,23.444 158.673,23.444 C158.008,23.444 156.761,24.202 156.745911,24.855 C156.733,25.588 158.145,26.079 158.872,26.08 C159.379,26.083 159.601,26.136 159.912,26.219 C160.26,26.301 160.828,26.3300014 161.271,26.3300014 C162.094,26.331 164.194,25.778 165.535,24.883 C167.074,23.878 167.825,22.806 168.322,21.564 C168.777,20.423 169.6,17.541 170.221,14.661 C170.29,14.389 170.362,14.008 170.207,13.872 C170.11,13.818 170.177,13.708 170.43,13.572 C170.975,13.249 171.396,12.705 171.406,12.134 C171.416,11.535 170.933,10.421 169.226,10.4179908" id="Fill-39" fill="#FFF101"></path>
                <path d="M202.277,23.265 C198.928,24.475 197.499,23.166 196.12,21.27 C194.969,19.679 202.513,18.775 202.911,17.544 C202.136,17.167 201.604,16.929 201.166,16.642 C200.017,15.882 199.772,15.26 199.462,14.52 C197.859,10.656 200.467,4.189 206.475,3.391 C211.353,2.743 213.975,6.102 213.629,9.91 C213.348,12.954 212.049,17.096 206.87,20.868 C205.595,21.8 203.013,23.086 202.277,23.265 M189.888,38.152 C190.284,35.151 188.203,34.928 186.215,36.342 C179.63,41.018 188.923,45.459 189.888,38.152 M102.671,53.648 C103.709,51.315 103.253,48.569 101.371,47.54 C99.952,46.766 96.938,47.753 95.474,49.371 C92.208,52.977 90.752,55.293 88.112,60.372 C87.073,62.371 85.58,65.899 84.865,68.26 C83.598,72.438 82.943,76.395 86.459,77.167 C89.384,77.81 93.506,75.301 94.642,72.571 C97.151,66.54 100.209,59.174 102.671,53.648 M110.523,81.063 C110.375,80.785 110.194,80.444 110.036,80.117 C106.523,83.526 103.866,85.553 99.68,86.084 C95.002,86.682 92.6,82.717 92.99,80.531 C90.974,83.123 83.284,92.051 75.769,88.059 C75.233,87.774 74.744,87.448 74.302,87.09 C74.083,87.586 73.449,88.857 72.073,90.924 C67.179,98.266 57.542,108.848 42.6,110.549 C32.27,111.725 25.954,108.487 20.792,102.785 C15.349,96.77 14.031,88.99 14.48,81.71 C15.2,70.06 18.232,59.861 22.383,50.623 C26.489,41.487 31.987,33.384 38.315,26.021 C45.744,17.376 54.272,11.141 63.062,8.134 C66.475,6.967 69.994,6.382 73.853,6.438 C85.857,6.619 95.948,19.717 89.302,32.905 C86.318,38.824 82.601,42.47 79.101,44.839 C78.186,45.459 77.528,45.629 76.965,45.47 C73.476,44.494 68.048,40.205 67.625,36.616 C67.462,35.25 68.55,34.465 69.315,33.671 C72.383,30.48 73.637,29.354 78.141,24.243 C79.923,22.22 81.12,20.07 80.465,18.534 C79.196,15.554 76.242,15.339 72.322,16.311 C70.269,16.821 63.877,19.474 56.684,26.683 C52.476,30.9 47.951,37.131 43.792,45.528 C37.67,57.894 32.84,70.37 33.336,80.185 C33.524,83.926 34.572,88.897 37.691,92.505 C40.793,96.091 45.981,97.263 50.037,97.206 C60.255,97.067 70.104,77.498 70.335,74.741 C70.657,70.873 71.474,64.502 75.785,56.377 C82.088,44.496 91.345,34.96 100.739,36.926 C104.701,37.757 106.833,40.421 107.548,43.13 C108.003,42.004 108.258,41.365 108.714,40.541 C109.428,39.249 110.598,39.029 112.461,38.436 C114.934,37.651 116.278,28.859 119.333,28.803 C121.345,28.768 126.573,29.717 125.784,32.77 C125.41,34.216 110.787,68.208 109.724,70.305 C106.8,76.083 109.608,75.498 111.09,74.802 C113.256,73.786 114.448,71.739 116.819,68.745 C122.319,56.636 130.272,38.855 130.689,37.949 C131.111,37.031 131.427,35.76 132.742,35.375 C135.429,34.589 141.215,33.246 144.272,33.246 C145.14,33.246 145.904,33.449 145.593,34.178 C145.11,35.302 144.081,36.809 143.468,38.422 C146.59,34.675 151.256,23.061 156.348,24.446 C163.687,26.443 167.548,33.089 165.36,38.336 C163.174,43.585 153.973,64.339 153.251,66.142 C152.136,68.915 159.272,62.274 160.719,60.118 C160.702,55.835 161.644,54.616 163.156,50.976 C166.103,43.859 172.655,30.264 183.325,25.918 C189.765,23.299 195.093,25.795 197.331,28.762 C199.681,31.884 199.943,37.353 197.951,41.636 C195.702,46.488 193.173,49.736 189.611,52.855 C185.663,56.311 179.822,62.362 173.344,60.993 C173.138,65.149 171.969,64.207 173.704,65.482 C175.064,66.48 187.972,59.335 191.665,55.306 C194.869,51.808 197.369,48.256 200.974,43.088 C206.183,35.615 213.492,24.223 219.368,18.411 C219.927,17.856 220.667,17.304 221.211,17.074 C221.524,16.941 221.76,16.874 222.083,16.893 C223.405,16.967 226.767,24.058 225.948,25.079 C225.826,25.236 225.671,25.342 225.433,25.442 C224.962,25.644 224.539,25.845 224.109,26.113 C222.086,27.47 220.19,29.354 220.694,31.762 C221.235,34.349 226.233,42.88 226.994,47.125 C227.476,49.824 242.8,35.563 242.248,38.042 C242.45,41.218 242.545,42.695 242.659,45.829 C241.013,48.548 239.723,50.807 238.336,53.298 C237.695,53.161 236.785,53.085 235.557,53.24 C231.556,53.758 226.127,58.696 223.672,62.071 C221.445,65.124 216.804,69.877 210.911,70.526 C204.371,71.245 200.34,68.747 198.501,65.913 C198.037,65.199 197.649,64.393 197.4,63.757 L199.445,61.292 C199.748,61.645 200.131,62.029 200.514,62.241 C201.301,62.678 203.031,63.623 205.582,63.664 C209.928,63.729 213.683,61.387 215.187,56.329 C216.797,50.933 214.075,40.154 213.962,38.601 C213.851,37.033 213.846,36.175 213.983,34.959 C210.99,39.961 206.202,47.217 203.429,51.123 C199.27,56.987 193.515,65.197 184.302,72.199 C180.792,74.867 173.764,79.521 166.484,76.035 C163.804,74.752 161.322,72.979 160.51,69.786 L160.216,70.376 C157.707,73.421 151.625,80.785 143.821,78.656 C138.833,77.295 135.976,71.98 135.09,70.474 C132.087,65.371 144.907,53.237 147.053,48.427 C147.57,47.261 148.616,43.736 146.59,43.465 C143.834,43.098 139.806,46.714 137.949,50.971 C135.919,55.632 126.234,77.154 125.249,79.031 C124.917,79.665 124.465,80.333 123.641,80.463 C121.413,80.813 114.149,82.266 111.828,82.072 C111.057,82.006 110.845,81.683 110.523,81.063" id="Fill-40" fill="#060403"></path>
                <path d="M108.171,74.287 C108.446,73.515 108.994,72.727 109.428,71.677 C105.914,75.084 100.73,79.16 96.545,79.693 C91.866,80.288 89.463,76.322 89.852,74.138 C87.836,76.729 80.147,85.659 72.63,81.665 C72.096,81.384 71.608,81.056 71.165,80.698 C70.944,81.193 70.314,82.464 68.937,84.531 C64.043,91.873 54.405,102.455 39.463,104.157 C29.133,105.331 22.818,102.092 17.656,96.391 C12.212,90.375 10.894,82.596 11.343,75.316 C12.063,63.668 15.095,53.466 19.246,44.23 C23.35,35.094 28.851,26.992 35.178,19.627 C42.608,10.981 51.135,4.748 59.927,1.742 C63.338,0.574 66.855,-0.01 70.716,0.045 C82.72,0.223 92.812,13.324 86.166,26.514 C83.183,32.43 79.464,36.077 75.964,38.445 C75.049,39.066 74.391,39.234 73.829,39.076 C70.339,38.099 64.914,33.812 64.489,30.223 C64.325,28.855 65.413,28.072 66.178,27.277 C69.246,24.087 70.501,22.959 75.004,17.848 C76.787,15.826 77.984,13.677 77.328,12.139 C76.061,9.162 73.104,8.943 69.186,9.917 C67.131,10.428 60.739,13.081 53.547,20.289 C49.338,24.505 44.815,30.737 40.656,39.135 C34.534,51.5 29.703,63.979 30.2,73.789 C30.39,77.533 31.435,82.501 34.555,86.11 C37.655,89.698 42.844,90.869 46.899,90.812 C57.119,90.674 64.9,82.096 66.619,80.372 C67.38,79.608 68.079,78.559 68.717,77.648 C67.184,74.711 66.967,71.105 67.197,68.349 C67.52,64.479 68.338,58.108 72.647,49.984 C78.951,38.103 88.208,28.565 97.6,30.534 C101.563,31.365 103.696,34.024 104.411,36.738 C104.866,35.612 105.12,34.973 105.577,34.147 C106.291,32.855 107.462,32.635 109.325,32.043 C111.798,31.258 114.991,30.381 118.045,30.326 C120.059,30.292 120.295,31.055 119.259,33.561 C118.687,34.941 106.248,61.816 105.187,63.914 C102.263,69.689 105.07,69.107 106.552,68.408 C108.716,67.393 111.312,65.346 113.683,62.351 C119.181,50.244 127.138,32.461 127.549,31.554 C127.97,30.634 128.289,29.366 129.606,28.982 C132.293,28.197 138.079,26.853 141.137,26.853 C142.007,26.853 142.768,27.056 142.456,27.785 C141.973,28.91 140.945,30.414 140.331,32.029 C143.457,28.283 149.517,24.749 154.686,25.818 C159.838,26.884 161.652,32.808 159.465,38.055 C157.277,43.301 150.837,57.945 150.114,59.747 C149,62.522 150.398,63.717 152.263,62.814 C153.995,61.981 156.139,59.228 157.583,57.071 C157.562,52.789 158.512,48.22 160.017,44.581 C162.968,37.464 169.514,23.869 180.189,19.525 C186.629,16.904 191.953,19.401 194.194,22.369 C196.549,25.49 196.806,30.96 194.815,35.244 C192.562,40.095 190.039,43.341 186.475,46.462 C182.526,49.916 177.487,52.564 170.207,54.601 C170.001,58.755 170.207,60.205 171.945,61.479 C173.306,62.477 176.75,62.096 179.592,60.251 C182.612,58.289 186.211,55.332 189.902,51.303 C193.108,47.807 196.275,43.615 199.881,38.447 C205.091,30.974 210.356,17.829 216.232,12.018 C216.789,11.463 217.534,10.91 218.076,10.681 C218.388,10.546 218.624,10.48 218.945,10.499 C220.268,10.576 223.632,17.665 222.811,18.685 C222.687,18.843 222.534,18.949 222.298,19.048 C221.825,19.25 221.403,19.453 220.971,19.719 C218.952,21.078 217.054,22.959 217.561,25.371 C218.099,27.953 223.097,36.485 223.857,40.732 C224.34,43.431 224.324,45.514 223.772,47.992 C226.747,44.544 233.88,38.607 239.519,39.434 C237.877,42.154 236.588,44.412 235.203,46.904 C234.556,46.766 233.647,46.691 232.42,46.849 C228.417,47.364 222.99,52.303 220.532,55.677 C218.311,58.731 213.667,63.485 207.771,64.13 C201.238,64.849 197.203,62.354 195.363,59.519 C194.9,58.806 194.514,58 194.262,57.363 L196.306,54.899 C196.608,55.251 196.995,55.638 197.38,55.848 C198.164,56.284 199.894,57.229 202.442,57.269 C206.788,57.336 210.548,54.994 212.053,49.935 C213.657,44.54 210.938,33.76 210.829,32.207 C210.719,30.641 210.705,29.783 210.847,28.563 C207.858,33.567 203.061,40.825 200.291,44.729 C196.134,50.593 190.379,58.803 181.165,65.807 C177.655,68.473 170.629,73.126 163.348,69.642 C160.668,68.36 159.04,65.757 158.227,62.565 C158.155,62.657 158.086,62.745 158.011,62.836 C155.499,65.877 148.49,74.392 140.685,72.263 C135.697,70.903 134.685,66.521 136.033,61.948 C137.705,56.266 141.771,46.846 143.916,42.035 C144.434,40.867 145.478,37.342 143.454,37.071 C140.697,36.705 136.669,40.321 134.816,44.577 C132.78,49.24 123.093,70.759 122.112,72.637 C121.781,73.272 121.328,73.939 120.504,74.069 C118.277,74.419 111.013,75.873 108.69,75.677 C107.921,75.612 107.894,75.067 108.171,74.287 M99.534,47.255 C100.572,44.92 100.118,42.175 98.232,41.146 C96.815,40.374 93.803,41.359 92.337,42.978 C89.072,46.583 87.615,48.9 84.976,53.977 C83.937,55.978 82.443,59.504 81.727,61.865 C80.461,66.046 80.104,71.013 83.618,71.787 C86.546,72.431 90.371,68.908 91.505,66.18 C94.014,60.142 97.072,52.781 99.534,47.255 M171.366,49.16 C178.365,45.849 185.786,39.066 186.753,31.758 C187.147,28.756 185.066,28.535 183.075,29.949 C176.494,34.624 171.849,46.467 171.366,49.16" id="Fill-41" fill="#060403"></path>
                <path d="M108.171,74.287 C108.446,73.515 108.994,72.727 109.428,71.677 C105.914,75.084 100.73,79.16 96.545,79.693 C91.866,80.288 89.463,76.322 89.852,74.138 C87.836,76.729 80.147,85.659 72.63,81.665 C72.096,81.384 71.608,81.056 71.165,80.698 C70.944,81.193 70.314,82.464 68.937,84.531 C64.043,91.873 54.405,102.455 39.463,104.157 C29.133,105.331 22.818,102.092 17.656,96.391 C12.212,90.375 10.894,82.596 11.343,75.316 C12.063,63.668 15.095,53.466 19.246,44.23 C23.35,35.094 28.851,26.992 35.178,19.627 C42.608,10.981 51.135,4.748 59.927,1.742 C63.338,0.574 66.855,-0.01 70.716,0.045 C82.72,0.223 92.812,13.324 86.166,26.514 C83.183,32.43 79.464,36.077 75.964,38.445 C75.049,39.066 74.391,39.234 73.829,39.076 C70.339,38.099 64.914,33.812 64.489,30.223 C64.325,28.855 65.413,28.072 66.178,27.277 C69.246,24.087 70.501,22.959 75.004,17.848 C76.787,15.826 77.984,13.677 77.328,12.139 C76.061,9.162 73.104,8.943 69.186,9.917 C67.131,10.428 60.739,13.081 53.547,20.289 C49.338,24.505 44.815,30.737 40.656,39.135 C34.534,51.5 29.703,63.979 30.2,73.789 C30.39,77.533 31.435,82.501 34.555,86.11 C37.655,89.698 42.844,90.869 46.899,90.812 C57.119,90.674 64.9,82.096 66.619,80.372 C67.38,79.608 68.079,78.559 68.717,77.648 C67.184,74.711 66.967,71.105 67.197,68.349 C67.52,64.479 68.338,58.108 72.647,49.984 C78.951,38.103 88.208,28.565 97.6,30.534 C101.563,31.365 103.696,34.024 104.411,36.738 C104.866,35.612 105.12,34.973 105.577,34.147 C106.291,32.855 107.462,32.635 109.325,32.043 C111.798,31.258 114.991,30.381 118.045,30.326 C120.059,30.292 120.295,31.055 119.259,33.561 C118.687,34.941 106.248,61.816 105.187,63.914 C102.263,69.689 105.07,69.107 106.552,68.408 C108.716,67.393 111.312,65.346 113.683,62.351 C119.181,50.244 127.138,32.461 127.549,31.554 C127.97,30.634 128.289,29.366 129.606,28.982 C132.293,28.197 138.079,26.853 141.137,26.853 C142.007,26.853 142.768,27.056 142.456,27.785 C141.973,28.91 140.945,30.414 140.331,32.029 C143.457,28.283 149.517,24.749 154.686,25.818 C159.838,26.884 161.652,32.808 159.465,38.055 C157.277,43.301 150.837,57.945 150.114,59.747 C149,62.522 150.398,63.717 152.263,62.814 C153.995,61.981 156.139,59.228 157.583,57.071 C157.562,52.789 158.512,48.22 160.017,44.581 C162.968,37.464 169.514,23.869 180.189,19.525 C186.629,16.904 191.953,19.401 194.194,22.369 C196.549,25.49 196.806,30.96 194.815,35.244 C192.562,40.095 190.039,43.341 186.475,46.462 C182.526,49.916 177.487,52.564 170.207,54.601 C170.001,58.755 170.207,60.205 171.945,61.479 C173.306,62.477 176.75,62.096 179.592,60.251 C182.612,58.289 186.211,55.332 189.902,51.303 C193.108,47.807 196.275,43.615 199.881,38.447 C205.091,30.974 210.356,17.829 216.232,12.018 C216.789,11.463 217.534,10.91 218.076,10.681 C218.388,10.546 218.624,10.48 218.945,10.499 C220.268,10.576 223.632,17.665 222.811,18.685 C222.687,18.843 222.534,18.949 222.298,19.048 C221.825,19.25 221.403,19.453 220.971,19.719 C218.952,21.078 217.054,22.959 217.561,25.371 C218.099,27.953 223.097,36.485 223.857,40.732 C224.34,43.431 224.324,45.514 223.772,47.992 C226.747,44.544 233.88,38.607 239.519,39.434 C237.877,42.154 236.588,44.412 235.203,46.904 C234.556,46.766 233.647,46.691 232.42,46.849 C228.417,47.364 222.99,52.303 220.532,55.677 C218.311,58.731 213.667,63.485 207.771,64.13 C201.238,64.849 197.203,62.354 195.363,59.519 C194.9,58.806 194.514,58 194.262,57.363 L196.306,54.899 C196.608,55.251 196.995,55.638 197.38,55.848 C198.164,56.284 199.894,57.229 202.442,57.269 C206.788,57.336 210.548,54.994 212.053,49.935 C213.657,44.54 210.938,33.76 210.829,32.207 C210.719,30.641 210.705,29.783 210.847,28.563 C207.858,33.567 203.061,40.825 200.291,44.729 C196.134,50.593 190.379,58.803 181.165,65.807 C177.655,68.473 170.629,73.126 163.348,69.642 C160.668,68.36 159.04,65.757 158.227,62.565 C158.155,62.657 158.086,62.745 158.011,62.836 C155.499,65.877 148.49,74.392 140.685,72.263 C135.697,70.903 134.685,66.521 136.033,61.948 C137.705,56.266 141.771,46.846 143.916,42.035 C144.434,40.867 145.478,37.342 143.454,37.071 C140.697,36.705 136.669,40.321 134.816,44.577 C132.78,49.24 123.093,70.759 122.112,72.637 C121.781,73.272 121.328,73.939 120.504,74.069 C118.277,74.419 111.013,75.873 108.69,75.677 C107.921,75.612 107.894,75.067 108.171,74.287 Z M99.534,47.255 C100.572,44.92 100.118,42.175 98.232,41.146 C96.815,40.374 93.803,41.359 92.337,42.978 C89.072,46.583 87.615,48.9 84.976,53.977 C83.937,55.978 82.443,59.504 81.727,61.865 C80.461,66.046 80.104,71.013 83.618,71.787 C86.546,72.431 90.371,68.908 91.505,66.18 C94.014,60.142 97.072,52.781 99.534,47.255 L99.534,47.255 Z M171.366,49.16 C178.365,45.849 185.786,39.066 186.753,31.758 C187.147,28.756 185.066,28.535 183.075,29.949 C176.494,34.624 171.849,46.467 171.366,49.16 L171.366,49.16 Z" id="Stroke-42" stroke="#060403" stroke-width="2.507"></path>
                <path d="M108.171,74.287 C108.446,73.515 108.994,72.727 109.428,71.677 C105.914,75.084 100.73,79.16 96.545,79.693 C91.866,80.288 89.463,76.322 89.852,74.138 C87.836,76.729 80.147,85.659 72.63,81.665 C72.096,81.384 71.608,81.056 71.165,80.698 C70.944,81.193 70.314,82.464 68.937,84.531 C64.043,91.873 54.405,102.455 39.463,104.157 C29.133,105.331 22.818,102.092 17.656,96.391 C12.212,90.375 10.894,82.596 11.343,75.316 C12.063,63.668 15.095,53.466 19.246,44.23 C23.35,35.094 28.851,26.992 35.178,19.627 C42.608,10.981 51.135,4.748 59.927,1.742 C63.338,0.574 66.855,-0.01 70.716,0.045 C82.72,0.223 92.812,13.324 86.166,26.514 C83.183,32.43 79.464,36.077 75.964,38.445 C75.049,39.066 74.391,39.234 73.829,39.076 C70.339,38.099 64.914,33.812 64.489,30.223 C64.325,28.855 65.413,28.072 66.178,27.277 C69.246,24.087 70.501,22.959 75.004,17.848 C76.787,15.826 77.984,13.677 77.328,12.139 C76.061,9.162 73.104,8.943 69.186,9.917 C67.131,10.428 60.739,13.081 53.547,20.289 C49.338,24.505 44.815,30.737 40.656,39.135 C34.534,51.5 29.703,63.979 30.2,73.789 C30.39,77.533 31.435,82.501 34.555,86.11 C37.655,89.698 42.844,90.869 46.899,90.812 C57.119,90.674 64.9,82.096 66.619,80.372 C67.38,79.608 68.079,78.559 68.717,77.648 C67.184,74.711 66.967,71.105 67.197,68.349 C67.52,64.479 68.338,58.108 72.647,49.984 C78.951,38.103 88.208,28.565 97.6,30.534 C101.563,31.365 103.696,34.024 104.411,36.738 C104.866,35.612 105.12,34.973 105.577,34.147 C106.291,32.855 107.462,32.635 109.325,32.043 C111.798,31.258 114.991,30.381 118.045,30.326 C120.059,30.292 120.295,31.055 119.259,33.561 C118.687,34.941 106.248,61.816 105.187,63.914 C102.263,69.689 105.07,69.107 106.552,68.408 C108.716,67.393 111.312,65.346 113.683,62.351 C119.181,50.244 127.138,32.461 127.549,31.554 C127.97,30.634 128.289,29.366 129.606,28.982 C132.293,28.197 138.079,26.853 141.137,26.853 C142.007,26.853 142.768,27.056 142.456,27.785 C141.973,28.91 140.945,30.414 140.331,32.029 C143.457,28.283 149.517,24.749 154.686,25.818 C159.838,26.884 161.652,32.808 159.465,38.055 C157.277,43.301 150.837,57.945 150.114,59.747 C149,62.522 150.398,63.717 152.263,62.814 C153.995,61.981 156.139,59.228 157.583,57.071 C157.562,52.789 158.512,48.22 160.017,44.581 C162.968,37.464 169.514,23.869 180.189,19.525 C186.629,16.904 191.953,19.401 194.194,22.369 C196.549,25.49 196.806,30.96 194.815,35.244 C192.562,40.095 190.039,43.341 186.475,46.462 C182.526,49.916 177.487,52.564 170.207,54.601 C170.001,58.755 170.207,60.205 171.945,61.479 C173.306,62.477 176.75,62.096 179.592,60.251 C182.612,58.289 186.211,55.332 189.902,51.303 C193.108,47.807 196.275,43.615 199.881,38.447 C205.091,30.974 210.356,17.829 216.232,12.018 C216.789,11.463 217.534,10.91 218.076,10.681 C218.388,10.546 218.624,10.48 218.945,10.499 C220.268,10.576 223.632,17.665 222.811,18.685 C222.687,18.843 222.534,18.949 222.298,19.048 C221.825,19.25 221.403,19.453 220.971,19.719 C218.952,21.078 217.054,22.959 217.561,25.371 C218.099,27.953 223.097,36.485 223.857,40.732 C224.34,43.431 224.324,45.514 223.772,47.992 C226.747,44.544 233.88,38.607 239.519,39.434 C237.877,42.154 236.588,44.412 235.203,46.904 C234.556,46.766 233.647,46.691 232.42,46.849 C228.417,47.364 222.99,52.303 220.532,55.677 C218.311,58.731 213.667,63.485 207.771,64.13 C201.238,64.849 197.203,62.354 195.363,59.519 C194.9,58.806 194.514,58 194.262,57.363 L196.306,54.899 C196.608,55.251 196.995,55.638 197.38,55.848 C198.164,56.284 199.894,57.229 202.442,57.269 C206.788,57.336 210.548,54.994 212.053,49.935 C213.657,44.54 210.938,33.76 210.829,32.207 C210.719,30.641 210.705,29.783 210.847,28.563 C207.858,33.567 203.061,40.825 200.291,44.729 C196.134,50.593 190.379,58.803 181.165,65.807 C177.655,68.473 170.629,73.126 163.348,69.642 C160.668,68.36 159.04,65.757 158.227,62.565 C158.155,62.657 158.086,62.745 158.011,62.836 C155.499,65.877 148.49,74.392 140.685,72.263 C135.697,70.903 134.685,66.521 136.033,61.948 C137.705,56.266 141.771,46.846 143.916,42.035 C144.434,40.867 145.478,37.342 143.454,37.071 C140.697,36.705 136.669,40.321 134.816,44.577 C132.78,49.24 123.093,70.759 122.112,72.637 C121.781,73.272 121.328,73.939 120.504,74.069 C118.277,74.419 111.013,75.873 108.69,75.677 C107.921,75.612 107.894,75.067 108.171,74.287 M99.534,47.255 C100.572,44.92 100.118,42.175 98.232,41.146 C96.815,40.374 93.803,41.359 92.337,42.978 C89.072,46.583 87.615,48.9 84.976,53.977 C83.937,55.978 82.443,59.504 81.727,61.865 C80.461,66.046 80.104,71.013 83.618,71.787 C86.546,72.431 90.371,68.908 91.505,66.18 C94.014,60.142 97.072,52.781 99.534,47.255 M171.366,49.16 C178.365,45.849 185.786,39.066 186.753,31.758 C187.147,28.756 185.066,28.535 183.075,29.949 C176.494,34.624 171.849,46.467 171.366,49.16" id="Fill-44" fill="#FFFFFE"></path>
                <path d="M198.732,21.16 C195.377,22.372 195.407,20.295 196.851,18.967 C198.294,17.634 199.575,16.403 199.972,15.171 C199.199,14.794 198.664,14.558 198.225,14.27 C197.073,13.51 196.833,12.888 196.526,12.149 C194.917,8.283 197.526,1.818 203.538,1.019 C208.416,0.37 211.038,3.73 210.688,7.538 C210.408,10.581 209.108,14.724 203.932,18.495 C202.654,19.428 199.47,20.982 198.732,21.16" id="Fill-45" fill="#060403"></path>
                <path d="M198.741,19.899 C202.243,18.737 206.665,15.183 208.331,11.115 C210.754,5.216 208.148,1.485 203.891,1.882 C201.294,2.127 198.371,4.055 197.543,7.719 C196.991,10.124 197.686,12.01 199.292,12.811 C199.746,13.039 201.214,13.634 201.484,14.079 C202.692,16.098 200.526,18.175 198.741,19.899" id="Fill-46" fill="#FFFFFE"></path>
                <path d="M92.445,92.255 C91.476,92.255 90.436,92.271 89.747,93.063 C89.22,93.673 89.22,94.382 89.22,95.072 L89.22,101.238 C89.22,102.047 89.235,103.365 90.858,103.778 C91.351,103.893 91.845,103.893 92.359,103.893 L97.471,103.893 L97.471,99.607 L96.829,98.764 L94.457,101.468 L92.604,101.468 L92.604,94.677 L94.457,94.677 L94.457,96.013 L97.331,96.013 L97.331,92.255 L96.552,91.248 L92.445,92.255" id="Fill-47" fill="#FFFFFE"></path>
                <path d="M92.445,92.255 C91.476,92.255 90.436,92.271 89.747,93.063 C89.22,93.673 89.22,94.382 89.22,95.072 L89.22,101.238 C89.22,102.047 89.235,103.365 90.858,103.778 C91.351,103.893 91.845,103.893 92.359,103.893 L97.471,103.893 L97.471,99.607 L96.829,98.764 L94.457,101.468 L92.604,101.468 L92.604,94.677 L94.457,94.677 L94.457,96.013 L97.331,96.013 L97.331,92.255 L96.552,91.248 L92.445,92.255 Z" id="Stroke-48" stroke="#FFFFFE" stroke-width="0.638"></path>
                <polyline id="Fill-49" fill="#FFFFFE" points="98.679 96.217 99.359 96.217 99.359 101.871 97.987 102.355 98.679 103.892 102.162 103.892 102.162 99.991 102.076 101.527 103.634 103.892 107.147 103.892 107.147 101.871 106.47 101.871 106.47 96.217 107.147 96.217 107.147 94.194 106.441 93.201 103.634 94.194 103.634 97.959 102.162 97.959 102.162 94.194 101.432 93.201 98.679 94.194 98.679 96.217"></polyline>
                <polygon id="Stroke-50" stroke="#FFFFFE" stroke-width="0.638" points="98.679 96.217 99.359 96.217 99.359 101.871 97.987 102.355 98.679 103.892 102.162 103.892 102.162 99.991 102.076 101.527 103.634 103.892 107.147 103.892 107.147 101.871 106.47 101.871 106.47 96.217 107.147 96.217 107.147 94.194 106.441 93.201 103.634 94.194 103.634 97.959 102.162 97.959 102.162 94.194 101.432 93.201 98.679 94.194"></polygon>
                <polyline id="Fill-51" fill="#FFFFFE" points="108.449 96.217 109.123 96.217 109.123 101.871 107.6 101.969 108.449 103.892 112.65 103.892 112.65 101.871 111.963 101.871 111.963 96.217 112.65 96.217 112.65 94.194 111.949 93.201 108.449 94.194 108.449 96.217"></polyline>
                <polygon id="Stroke-52" stroke="#FFFFFE" stroke-width="0.638" points="108.449 96.217 109.123 96.217 109.123 101.871 107.6 101.969 108.449 103.892 112.65 103.892 112.65 101.871 111.963 101.871 111.963 96.217 112.65 96.217 112.65 94.194 111.949 93.201 108.449 94.194"></polygon>
                <path d="M116.679,94.194 C115.87,94.194 115.003,94.209 114.43,94.868 C113.989,95.377 113.989,95.968 113.989,96.546 L113.989,101.68 C113.989,102.352 114.003,103.454 115.355,103.796 C115.767,103.892 116.179,103.892 116.603,103.892 L120.868,103.892 L120.868,100.511 L120.273,99.537 L118.351,101.871 L116.81,101.871 L116.81,96.217 L118.351,96.217 L118.351,97.326 L120.75,97.326 L120.75,94.194 L120.015,93.217 L116.679,94.194" id="Fill-53" fill="#FFFFFE"></path>
                <path d="M116.679,94.194 C115.87,94.194 115.003,94.209 114.43,94.868 C113.989,95.377 113.989,95.968 113.989,96.546 L113.989,101.68 C113.989,102.352 114.003,103.454 115.355,103.796 C115.767,103.892 116.179,103.892 116.603,103.892 L120.868,103.892 L120.868,100.511 L120.273,99.537 L118.351,101.871 L116.81,101.871 L116.81,96.217 L118.351,96.217 L118.351,97.326 L120.75,97.326 L120.75,94.194 L120.015,93.217 L116.679,94.194 Z" id="Stroke-54" stroke="#FFFFFE" stroke-width="0.638"></path>
                <polyline id="Fill-55" fill="#FFFFFE" points="129.907 93.383 125.761 98.397 125.761 94.194 125.044 93.217 122.234 94.194 122.234 96.216 122.907 96.216 122.907 101.871 121.193 102.191 122.234 103.892 125.761 103.892 125.761 100.184 127.271 100.184 126.61 103.201 127.271 103.892 130.812 103.892 130.812 101.871 130.052 101.871 130.052 98.397 128.272 98.397 129.578 96.216 130.507 96.216 130.507 94.194 129.907 93.383"></polyline>
                <polygon id="Stroke-56" stroke="#FFFFFE" stroke-width="0.638" points="129.907 93.383 125.761 98.397 125.761 94.194 125.044 93.217 122.234 94.194 122.234 96.216 122.907 96.216 122.907 101.871 121.193 102.191 122.234 103.892 125.761 103.892 125.761 100.184 127.271 100.184 126.61 103.201 127.271 103.892 130.812 103.892 130.812 101.871 130.052 101.871 130.052 98.397 128.272 98.397 129.578 96.216 130.507 96.216 130.507 94.194"></polygon>
                <polyline id="Fill-57" fill="#FFFFFE" points="131.851 96.217 132.529 96.217 132.529 101.871 131.658 101.871 131.658 103.892 139.334 103.892 139.334 100.624 138.727 99.793 136.805 101.871 135.306 101.871 135.306 99.841 137.421 99.841 137.421 98.056 135.306 98.056 135.306 96.217 136.805 96.217 136.805 97.367 139.169 97.367 139.169 94.194 138.452 93.145 131.851 94.194 131.851 96.217"></polyline>
                <polygon id="Stroke-58" stroke="#FFFFFE" stroke-width="0.638" points="131.851 96.217 132.529 96.217 132.529 101.871 131.658 101.871 131.658 103.892 139.334 103.892 139.334 100.624 138.727 99.793 136.805 101.871 135.306 101.871 135.306 99.841 137.421 99.841 137.421 98.056 135.306 98.056 135.306 96.217 136.805 96.217 136.805 97.367 139.169 97.367 139.169 94.194 138.452 93.145 131.851 94.194"></polygon>
                <path d="M149.486,93.401 L146.933,98.084 C146.933,98.84 146.933,99.044 147.021,99.868 C146.816,99.278 146.756,99.113 146.391,98.454 L144.067,94.194 L140.746,94.194 L140.746,96.217 L141.422,96.217 L141.422,101.872 L139.873,102.737 L140.746,103.893 L143.964,103.893 L143.906,99.168 C143.893,98.799 143.893,98.647 143.845,98.261 C144.067,98.907 144.139,99.1 144.684,100.115 L145.875,102.963 L146.801,103.893 L150.106,103.893 L150.106,101.872 L149.431,101.872 L149.431,96.217 L150.106,96.217 L150.106,94.194 L149.486,93.401" id="Fill-59" fill="#FFFFFE"></path>
                <path d="M149.486,93.401 L146.933,98.084 C146.933,98.84 146.933,99.044 147.021,99.868 C146.816,99.278 146.756,99.113 146.391,98.454 L144.067,94.194 L140.746,94.194 L140.746,96.217 L141.422,96.217 L141.422,101.872 L139.873,102.737 L140.746,103.893 L143.964,103.893 L143.906,99.168 C143.893,98.799 143.893,98.647 143.845,98.261 C144.067,98.907 144.139,99.1 144.684,100.115 L145.875,102.963 L146.801,103.893 L150.106,103.893 L150.106,101.872 L149.431,101.872 L149.431,96.217 L150.106,96.217 L150.106,94.194 L149.486,93.401 Z" id="Stroke-60" stroke="#FFFFFE" stroke-width="0.638"></path>
                <polyline id="Fill-61" fill="#FFFFFE" points="156.421 94.677 157.25 94.677 157.25 101.468 156.421 101.468 155.509 103.013 156.421 103.893 161.466 103.893 161.466 101.468 160.675 101.468 160.675 98.98 163.226 98.98 163.226 96.869 160.675 96.869 160.675 94.677 162.521 94.677 162.521 95.947 165.487 95.947 165.487 92.255 164.736 91.302 156.421 92.255 156.421 94.677"></polyline>
                <polygon id="Stroke-62" stroke="#FFFFFE" stroke-width="0.638" points="156.421 94.677 157.25 94.677 157.25 101.468 156.421 101.468 155.509 103.013 156.421 103.893 161.466 103.893 161.466 101.468 160.675 101.468 160.675 98.98 163.226 98.98 163.226 96.869 160.675 96.869 160.675 94.677 162.521 94.677 162.521 95.947 165.487 95.947 165.487 92.255 164.736 91.302 156.421 92.255"></polygon>
                <polyline id="Fill-63" fill="#FFFFFE" points="166.492 96.217 167.166 96.217 167.166 101.871 166.492 101.871 165.641 103.166 166.492 103.892 170.694 103.892 170.694 101.871 170.001 101.871 170.001 96.217 170.694 96.217 170.694 94.194 170.045 93.289 166.492 94.194 166.492 96.217"></polyline>
                <polygon id="Stroke-64" stroke="#FFFFFE" stroke-width="0.638" points="166.492 96.217 167.166 96.217 167.166 101.871 166.492 101.871 165.641 103.166 166.492 103.892 170.694 103.892 170.694 101.871 170.001 101.871 170.001 96.217 170.694 96.217 170.694 94.194 170.045 93.289 166.492 94.194"></polygon>
                <path d="M180.648,93.513 L178.071,98.083 C178.071,98.839 178.071,99.044 178.156,99.867 C177.954,99.277 177.892,99.112 177.526,98.453 L175.202,94.193 L171.883,94.193 L171.883,96.216 L172.557,96.216 L172.557,101.871 L171.145,102.523 L171.883,103.892 L175.102,103.892 L175.04,99.167 C175.027,98.798 175.027,98.646 174.986,98.261 C175.202,98.907 175.276,99.099 175.822,100.115 L177.069,103 L177.935,103.892 L181.244,103.892 L181.244,101.871 L180.57,101.871 L180.57,96.216 L181.244,96.216 L181.244,94.193 L180.648,93.513" id="Fill-65" fill="#FFFFFE"></path>
                <path d="M180.648,93.513 L178.071,98.083 C178.071,98.839 178.071,99.044 178.156,99.867 C177.954,99.277 177.892,99.112 177.526,98.453 L175.202,94.193 L171.883,94.193 L171.883,96.216 L172.557,96.216 L172.557,101.871 L171.145,102.523 L171.883,103.892 L175.102,103.892 L175.04,99.167 C175.027,98.798 175.027,98.646 174.986,98.261 C175.202,98.907 175.276,99.099 175.822,100.115 L177.069,103 L177.935,103.892 L181.244,103.892 L181.244,101.871 L180.57,101.871 L180.57,96.216 L181.244,96.216 L181.244,94.193 L180.648,93.513 Z" id="Stroke-66" stroke="#FFFFFE" stroke-width="0.638"></path>
                <path d="M184.846,94.182 C184.011,94.182 183.127,94.182 182.612,94.896 C182.275,95.377 182.275,96.02 182.275,96.57 L182.275,101.597 C182.275,102.424 182.321,103.096 183.055,103.548 C183.612,103.892 184.203,103.892 184.758,103.892 L189.432,103.892 L189.432,98.028 L185.905,100.044 L186.756,100.044 L186.756,101.871 L185.141,101.871 L189.313,97.013 L189.313,94.182 L188.606,93.234 L184.846,94.182" id="Fill-67" fill="#FFFFFE"></path>
                <path d="M184.846,94.182 C184.011,94.182 183.127,94.182 182.612,94.896 C182.275,95.377 182.275,96.02 182.275,96.57 L182.275,101.597 C182.275,102.424 182.321,103.096 183.055,103.548 C183.612,103.892 184.203,103.892 184.758,103.892 L189.432,103.892 L189.432,98.028 L185.905,100.044 L186.756,100.044 L186.756,101.871 L185.141,101.871 L189.313,97.013 L189.313,94.182 L188.606,93.234 L184.846,94.182 Z" id="Stroke-68" stroke="#FFFFFE" stroke-width="0.638"></path>
                <polyline id="Fill-69" fill="#FFFFFE" points="190.705 96.217 191.381 96.217 191.381 101.871 190.102 102.737 190.705 103.892 198.184 103.892 198.184 100.624 197.612 99.865 195.658 101.871 194.16 101.871 194.16 99.841 196.274 99.841 196.274 98.056 194.16 98.056 194.16 96.217 195.658 96.217 195.658 97.367 198.027 97.367 198.027 94.194 197.334 93.18 190.705 94.194 190.705 96.217"></polyline>
                <polygon id="Stroke-70" stroke="#FFFFFE" stroke-width="0.638" points="190.705 96.217 191.381 96.217 191.381 101.871 190.102 102.737 190.705 103.892 198.184 103.892 198.184 100.624 197.612 99.865 195.658 101.871 194.16 101.871 194.16 99.841 196.274 99.841 196.274 98.056 194.16 98.056 194.16 96.217 195.658 96.217 195.658 97.367 198.027 97.367 198.027 94.194 197.334 93.18 190.705 94.194"></polygon>
                <path d="M203.258,98.138 L204.845,98.138 L204.845,96.216 L203.258,96.216 L203.258,98.138 Z M199.743,96.216 L200.405,96.216 L200.405,101.872 L199.743,101.872 L198.778,102.85 L199.743,103.892 L203.257,103.892 L203.257,99.949 L204.845,99.949 L204.845,102.891 C204.857,103.796 205.268,103.877 206.346,103.892 L208.296,103.892 L208.296,101.872 L207.607,101.872 L207.607,100.83 C207.593,100.391 207.562,99.936 207.21,99.526 C206.904,99.182 206.538,99.099 206.172,99.017 C207.634,98.564 207.647,97.711 207.647,96.436 C207.647,95.803 207.647,95.171 207.092,94.691 C206.538,94.209 205.787,94.209 205.153,94.193 L199.743,94.193 L199.743,96.216 L199.743,96.216 Z" id="Fill-71" fill="#FFFFFE"></path>
                <path d="M203.258,98.138 L204.845,98.138 L204.845,96.216 L203.258,96.216 L203.258,98.138 Z M199.744,96.216 L200.406,96.216 L200.406,101.871 L199.744,101.871 L198.778,102.849 L199.744,103.892 L203.258,103.892 L203.258,99.949 L204.845,99.949 L204.845,102.891 C204.857,103.796 205.268,103.877 206.346,103.892 L208.296,103.892 L208.296,101.871 L207.607,101.871 L207.607,100.829 C207.593,100.391 207.561,99.935 207.21,99.526 C206.904,99.182 206.538,99.099 206.172,99.017 C207.634,98.564 207.646,97.711 207.646,96.435 C207.646,95.802 207.646,95.171 207.092,94.691 C206.538,94.209 205.787,94.209 205.153,94.193 L199.744,94.193 L199.744,96.216 L199.744,96.216 Z" id="Stroke-72" stroke="#FFFFFE" stroke-width="0.638"></path>
                <path d="M211.85,94.194 C211.261,94.194 210.541,94.209 209.999,94.732 C209.527,95.186 209.513,95.692 209.498,96.217 L209.498,97.821 C209.513,98.373 209.545,98.921 210.055,99.401 C210.586,99.911 211.233,99.911 211.837,99.924 L213.907,99.924 L213.907,101.871 L212.32,101.871 L212.32,100.927 L208.783,102.469 L209.642,103.892 L214.288,103.892 C214.805,103.892 215.288,103.892 215.772,103.645 C216.715,103.178 216.715,102.299 216.727,101.641 L216.727,100.089 C216.727,99.527 216.727,98.784 215.981,98.332 C215.449,98.001 214.788,98.001 214.216,97.988 L212.32,97.988 L212.32,96.217 L213.907,96.217 L213.907,97.053 L216.421,97.053 L216.421,94.194 L215.68,93.18 L211.85,94.194" id="Fill-73" fill="#FFFFFE"></path>
                <path d="M211.85,94.194 C211.261,94.194 210.541,94.209 209.999,94.732 C209.527,95.186 209.513,95.692 209.498,96.217 L209.498,97.821 C209.513,98.373 209.545,98.921 210.055,99.401 C210.586,99.911 211.233,99.911 211.837,99.924 L213.907,99.924 L213.907,101.871 L212.32,101.871 L212.32,100.927 L208.783,102.469 L209.642,103.892 L214.288,103.892 C214.805,103.892 215.288,103.892 215.772,103.645 C216.715,103.178 216.715,102.299 216.727,101.641 L216.727,100.089 C216.727,99.527 216.727,98.784 215.981,98.332 C215.449,98.001 214.788,98.001 214.216,97.988 L212.32,97.988 L212.32,96.217 L213.907,96.217 L213.907,97.053 L216.421,97.053 L216.421,94.194 L215.68,93.18 L211.85,94.194 Z" id="Stroke-74" stroke="#FFFFFE" stroke-width="0.638"></path>
                <path d="M91.441,91.174 C90.469,91.174 89.429,91.188 88.74,91.98 C88.212,92.59 88.212,93.299 88.212,93.992 L88.212,100.157 C88.212,100.964 88.229,102.282 89.852,102.695 C90.346,102.809 90.839,102.809 91.351,102.809 L96.466,102.809 L96.466,98.523 L93.45,98.523 L93.45,100.388 L91.598,100.388 L91.598,93.596 L93.45,93.596 L93.45,94.93 L96.325,94.93 L96.325,91.174 L91.441,91.174" id="Fill-75" fill="#6F8F9D"></path>
                <path d="M91.441,91.174 C90.469,91.174 89.429,91.188 88.74,91.98 C88.212,92.59 88.212,93.299 88.212,93.992 L88.212,100.157 C88.212,100.964 88.229,102.282 89.852,102.695 C90.346,102.809 90.839,102.809 91.351,102.809 L96.466,102.809 L96.466,98.523 L93.45,98.523 L93.45,100.388 L91.598,100.388 L91.598,93.596 L93.45,93.596 L93.45,94.93 L96.325,94.93 L96.325,91.174 L91.441,91.174 Z" id="Stroke-76" stroke="#FFFFFE" stroke-width="0.638"></path>
                <polyline id="Fill-77" fill="#6F8F9D" points="97.676 95.132 98.351 95.132 98.351 100.792 97.676 100.792 97.676 102.809 101.158 102.809 101.158 98.91 102.627 98.91 102.627 102.809 106.139 102.809 106.139 100.792 105.463 100.792 105.463 95.132 106.139 95.132 106.139 93.114 102.627 93.114 102.627 96.877 101.158 96.877 101.158 93.114 97.676 93.114 97.676 95.132"></polyline>
                <polygon id="Stroke-78" stroke="#FFFFFE" stroke-width="0.638" points="97.676 95.132 98.351 95.132 98.351 100.792 97.676 100.792 97.676 102.809 101.158 102.809 101.158 98.91 102.627 98.91 102.627 102.809 106.139 102.809 106.139 100.792 105.463 100.792 105.463 95.132 106.139 95.132 106.139 93.114 102.627 93.114 102.627 96.877 101.158 96.877 101.158 93.114 97.676 93.114"></polygon>
                <polyline id="Fill-79" fill="#6F8F9D" points="107.442 95.132 108.121 95.132 108.121 100.792 107.03 100.792 107.03 101.735 107.442 102.809 111.647 102.809 111.647 100.792 110.954 100.792 110.954 95.132 111.647 95.132 111.647 93.114 107.442 93.114 107.442 95.132"></polyline>
                <polygon id="Stroke-80" stroke="#FFFFFE" stroke-width="0.638" points="107.442 95.132 108.121 95.132 108.121 100.792 107.03 100.792 107.03 101.735 107.442 102.809 111.647 102.809 111.647 100.792 110.954 100.792 110.954 95.132 111.647 95.132 111.647 93.114 107.442 93.114"></polygon>
                <path d="M115.671,93.114 C114.862,93.114 113.995,93.129 113.424,93.786 C112.984,94.295 112.984,94.888 112.984,95.463 L112.984,100.6 C112.984,101.273 112.998,102.371 114.349,102.716 C114.762,102.81 115.171,102.81 115.599,102.81 L119.86,102.81 L119.86,99.24 L117.347,99.24 L117.347,100.793 L115.804,100.793 L115.804,95.133 L117.347,95.133 L117.347,96.246 L119.742,96.246 L119.742,93.114 L115.671,93.114" id="Fill-81" fill="#6F8F9D"></path>
                <path d="M115.671,93.114 C114.862,93.114 113.995,93.129 113.424,93.786 C112.984,94.295 112.984,94.888 112.984,95.463 L112.984,100.6 C112.984,101.273 112.998,102.371 114.349,102.716 C114.762,102.81 115.171,102.81 115.599,102.81 L119.86,102.81 L119.86,99.24 L117.347,99.24 L117.347,100.793 L115.804,100.793 L115.804,95.133 L117.347,95.133 L117.347,96.246 L119.742,96.246 L119.742,93.114 L115.671,93.114 Z" id="Stroke-82" stroke="#FFFFFE" stroke-width="0.638"></path>
                <polyline id="Fill-83" fill="#6F8F9D" points="126.808 93.114 124.752 97.317 124.752 93.114 121.227 93.114 121.227 95.133 121.899 95.133 121.899 100.793 121.227 100.793 121.227 102.81 124.752 102.81 124.752 99.103 126.267 99.103 126.267 102.81 129.809 102.81 129.809 100.793 129.043 100.793 129.043 97.317 127.264 97.317 128.574 95.133 129.5 95.133 129.5 93.114 126.808 93.114"></polyline>
                <polygon id="Stroke-84" stroke="#FFFFFE" stroke-width="0.638" points="126.808 93.114 124.752 97.317 124.752 93.114 121.227 93.114 121.227 95.133 121.899 95.133 121.899 100.793 121.227 100.793 121.227 102.81 124.752 102.81 124.752 99.103 126.267 99.103 126.267 102.81 129.809 102.81 129.809 100.793 129.043 100.793 129.043 97.317 127.264 97.317 128.574 95.133 129.5 95.133 129.5 93.114"></polygon>
                <polyline id="Fill-85" fill="#6F8F9D" points="130.846 95.132 131.521 95.132 131.521 100.792 130.846 100.792 130.846 102.809 138.327 102.809 138.327 99.541 135.801 99.541 135.801 100.792 134.302 100.792 134.302 98.758 136.417 98.758 136.417 96.974 134.302 96.974 134.302 95.132 135.801 95.132 135.801 96.288 138.165 96.288 138.165 93.114 130.846 93.114 130.846 95.132"></polyline>
                <polygon id="Stroke-86" stroke="#FFFFFE" stroke-width="0.638" points="130.846 95.132 131.521 95.132 131.521 100.792 130.846 100.792 130.846 102.809 138.327 102.809 138.327 99.541 135.801 99.541 135.801 100.792 134.302 100.792 134.302 98.758 136.417 98.758 136.417 96.974 134.302 96.974 134.302 95.132 135.801 95.132 135.801 96.288 138.165 96.288 138.165 93.114 130.846 93.114"></polygon>
                <path d="M145.926,93.114 L145.926,97.001 C145.926,97.756 145.926,97.962 146.014,98.787 C145.808,98.194 145.75,98.031 145.384,97.371 L143.06,93.114 L139.741,93.114 L139.741,95.133 L140.416,95.133 L140.416,100.793 L139.741,100.793 L139.741,102.81 L142.957,102.81 L142.898,98.087 C142.885,97.715 142.885,97.564 142.844,97.18 C143.06,97.823 143.135,98.019 143.677,99.034 L145.794,102.81 L149.099,102.81 L149.099,100.793 L148.425,100.793 L148.425,95.133 L149.099,95.133 L149.099,93.114 L145.926,93.114" id="Fill-87" fill="#6F8F9D"></path>
                <path d="M145.926,93.114 L145.926,97.001 C145.926,97.756 145.926,97.962 146.014,98.787 C145.808,98.194 145.75,98.031 145.384,97.371 L143.06,93.114 L139.741,93.114 L139.741,95.133 L140.416,95.133 L140.416,100.793 L139.741,100.793 L139.741,102.81 L142.957,102.81 L142.898,98.087 C142.885,97.715 142.885,97.564 142.844,97.18 C143.06,97.823 143.135,98.019 143.677,99.034 L145.794,102.81 L149.099,102.81 L149.099,100.793 L148.425,100.793 L148.425,95.133 L149.099,95.133 L149.099,93.114 L145.926,93.114 Z" id="Stroke-88" stroke="#FFFFFE" stroke-width="0.638"></path>
                <polyline id="Fill-89" fill="#6F8F9D" points="155.417 93.595 156.243 93.595 156.243 100.388 155.417 100.388 155.417 102.81 160.459 102.81 160.459 100.388 159.668 100.388 159.668 97.897 162.224 97.897 162.224 95.787 159.668 95.787 159.668 93.595 161.517 93.595 161.517 94.865 164.479 94.865 164.479 91.174 155.417 91.174 155.417 93.595"></polyline>
                <polygon id="Stroke-90" stroke="#FFFFFE" stroke-width="0.638" points="155.417 93.595 156.243 93.595 156.243 100.388 155.417 100.388 155.417 102.81 160.459 102.81 160.459 100.388 159.668 100.388 159.668 97.897 162.224 97.897 162.224 95.787 159.668 95.787 159.668 93.595 161.517 93.595 161.517 94.865 164.479 94.865 164.479 91.174 155.417 91.174"></polygon>
                <polyline id="Fill-91" fill="#6F8F9D" points="165.484 95.132 166.159 95.132 166.159 100.792 165.484 100.792 165.484 102.809 169.686 102.809 169.686 100.792 168.997 100.792 168.997 95.132 169.686 95.132 169.686 93.114 165.484 93.114 165.484 95.132"></polyline>
                <polygon id="Stroke-92" stroke="#FFFFFE" stroke-width="0.638" points="165.484 95.132 166.159 95.132 166.159 100.792 165.484 100.792 165.484 102.809 169.686 102.809 169.686 100.792 168.997 100.792 168.997 95.132 169.686 95.132 169.686 93.114 165.484 93.114"></polygon>
                <path d="M177.063,93.114 L177.063,97.001 C177.063,97.756 177.063,97.962 177.152,98.787 C176.947,98.194 176.888,98.031 176.52,97.371 L174.197,93.114 L170.876,93.114 L170.876,95.133 L171.551,95.133 L171.551,100.793 L170.876,100.793 L170.876,102.81 L174.094,102.81 L174.035,98.087 C174.022,97.715 174.022,97.564 173.977,97.18 C174.197,97.823 174.273,98.019 174.818,99.034 L176.932,102.81 L180.236,102.81 L180.236,100.793 L179.561,100.793 L179.561,95.133 L180.236,95.133 L180.236,93.114 L177.063,93.114" id="Fill-93" fill="#6F8F9D"></path>
                <path d="M177.063,93.114 L177.063,97.001 C177.063,97.756 177.063,97.962 177.152,98.787 C176.947,98.194 176.888,98.031 176.52,97.371 L174.197,93.114 L170.876,93.114 L170.876,95.133 L171.551,95.133 L171.551,100.793 L170.876,100.793 L170.876,102.81 L174.094,102.81 L174.035,98.087 C174.022,97.715 174.022,97.564 173.977,97.18 C174.197,97.823 174.273,98.019 174.818,99.034 L176.932,102.81 L180.236,102.81 L180.236,100.793 L179.561,100.793 L179.561,95.133 L180.236,95.133 L180.236,93.114 L177.063,93.114 Z" id="Stroke-94" stroke="#FFFFFE" stroke-width="0.638"></path>
                <path d="M183.839,93.101 C183.003,93.101 182.122,93.101 181.607,93.814 C181.268,94.295 181.268,94.941 181.268,95.49 L181.268,100.518 C181.268,101.34 181.313,102.013 182.05,102.467 C182.605,102.81 183.194,102.81 183.753,102.81 L188.425,102.81 L188.425,96.948 L184.899,96.948 L184.899,98.965 L185.748,98.965 L185.748,100.792 L184.134,100.792 L184.134,95.119 L185.748,95.119 L185.748,95.931 L188.305,95.931 L188.305,93.101 L183.839,93.101" id="Fill-95" fill="#6F8F9D"></path>
                <path d="M183.839,93.101 C183.003,93.101 182.122,93.101 181.607,93.814 C181.268,94.295 181.268,94.941 181.268,95.49 L181.268,100.518 C181.268,101.34 181.313,102.013 182.05,102.467 C182.605,102.81 183.194,102.81 183.753,102.81 L188.425,102.81 L188.425,96.948 L184.899,96.948 L184.899,98.965 L185.748,98.965 L185.748,100.792 L184.134,100.792 L184.134,95.119 L185.748,95.119 L185.748,95.931 L188.305,95.931 L188.305,93.101 L183.839,93.101 Z" id="Stroke-96" stroke="#FFFFFE" stroke-width="0.638"></path>
                <polyline id="Fill-97" fill="#060403" points="189.701 95.132 189.701 102.809 197.179 102.809 197.179 99.541 194.65 99.541 194.65 100.792 193.152 100.792 193.152 98.758 195.271 98.758 195.271 96.974 193.152 96.974 193.152 95.132 194.65 95.132 194.65 96.288 197.016 96.288 197.016 93.114 189.701 93.114 189.701 95.132"></polyline>
                <polygon id="Stroke-98" stroke="#FFFFFE" stroke-width="0.638" points="189.701 95.132 189.701 102.809 197.179 102.809 197.179 99.541 194.65 99.541 194.65 100.792 193.152 100.792 193.152 98.758 195.271 98.758 195.271 96.974 193.152 96.974 193.152 95.132 194.65 95.132 194.65 96.288 197.016 96.288 197.016 93.114 189.701 93.114"></polygon>
                <path d="M202.249,97.057 L203.835,97.057 L203.835,95.133 L202.249,95.133 L202.249,97.057 Z M198.739,95.132 L199.401,95.132 L199.401,100.792 L198.739,100.792 L198.739,102.81 L202.25,102.81 L202.25,98.87 L203.835,98.87 L203.835,101.807 C203.854,102.716 204.265,102.796 205.334,102.81 L207.292,102.81 L207.292,100.792 L206.602,100.792 L206.602,99.747 C206.585,99.309 206.556,98.855 206.206,98.444 C205.897,98.101 205.526,98.019 205.159,97.933 C206.631,97.482 206.644,96.631 206.644,95.352 C206.644,94.722 206.644,94.087 206.089,93.608 C205.526,93.129 204.779,93.129 204.146,93.115 L198.739,93.115 L198.739,95.132 L198.739,95.132 Z" id="Fill-99" fill="#6F8F9D"></path>
                <path d="M202.25,97.057 L203.836,97.057 L203.836,95.133 L202.25,95.133 L202.25,97.057 Z M198.739,95.133 L199.4,95.133 L199.4,100.792 L198.739,100.792 L198.739,102.809 L202.25,102.809 L202.25,98.87 L203.836,98.87 L203.836,101.807 C203.854,102.716 204.264,102.797 205.335,102.809 L207.292,102.809 L207.292,100.792 L206.602,100.792 L206.602,99.747 C206.586,99.308 206.555,98.856 206.206,98.444 C205.896,98.1 205.526,98.018 205.158,97.933 C206.631,97.482 206.643,96.632 206.643,95.352 C206.643,94.721 206.643,94.088 206.089,93.609 C205.526,93.129 204.779,93.129 204.145,93.114 L198.739,93.114 L198.739,95.133 L198.739,95.133 Z" id="Stroke-100" stroke="#FFFFFE" stroke-width="0.638"></path>
                <path d="M210.846,93.114 C210.256,93.114 209.538,93.129 208.992,93.65 C208.518,94.102 208.509,94.613 208.495,95.133 L208.495,96.739 C208.509,97.289 208.536,97.838 209.05,98.32 C209.579,98.828 210.225,98.828 210.829,98.843 L212.899,98.843 L212.899,100.793 L211.312,100.793 L211.312,99.843 L208.638,99.843 L208.638,102.81 L213.284,102.81 C213.798,102.81 214.281,102.81 214.767,102.565 C215.707,102.098 215.707,101.218 215.723,100.558 L215.723,99.008 C215.723,98.444 215.723,97.701 214.973,97.248 C214.444,96.92 213.781,96.92 213.209,96.905 L211.312,96.905 L211.312,95.133 L212.899,95.133 L212.899,95.969 L215.416,95.969 L215.416,93.114 L210.846,93.114" id="Fill-101" fill="#6F8F9D"></path>
                <path d="M210.846,93.114 C210.256,93.114 209.538,93.129 208.992,93.65 C208.518,94.102 208.509,94.613 208.495,95.133 L208.495,96.739 C208.509,97.289 208.536,97.838 209.05,98.32 C209.579,98.828 210.225,98.828 210.829,98.843 L212.899,98.843 L212.899,100.793 L211.312,100.793 L211.312,99.843 L208.638,99.843 L208.638,102.81 L213.284,102.81 C213.798,102.81 214.281,102.81 214.767,102.565 C215.707,102.098 215.707,101.218 215.723,100.558 L215.723,99.008 C215.723,98.444 215.723,97.701 214.973,97.248 C214.444,96.92 213.781,96.92 213.209,96.905 L211.312,96.905 L211.312,95.133 L212.899,95.133 L212.899,95.969 L215.416,95.969 L215.416,93.114 L210.846,93.114 Z" id="Stroke-102" stroke="#FFFFFE" stroke-width="0.638"></path>
                <path d="M91.441,91.174 C90.469,91.174 89.429,91.188 88.74,91.98 C88.212,92.59 88.212,93.299 88.212,93.992 L88.212,100.157 C88.212,100.964 88.229,102.282 89.852,102.695 C90.346,102.809 90.839,102.809 91.351,102.809 L96.466,102.809 L96.466,98.523 L93.45,98.523 L93.45,100.388 L91.598,100.388 L91.598,93.596 L93.45,93.596 L93.45,94.93 L96.325,94.93 L96.325,91.174 L91.441,91.174" id="Fill-103" fill="#060403"></path>
                <polyline id="Fill-104" fill="#060403" points="97.676 95.132 98.351 95.132 98.351 100.792 97.676 100.792 97.676 102.809 101.158 102.809 101.158 98.91 102.627 98.91 102.627 102.809 106.139 102.809 106.139 100.792 105.463 100.792 105.463 95.132 106.139 95.132 106.139 93.114 102.627 93.114 102.627 96.877 101.158 96.877 101.158 93.114 97.676 93.114 97.676 95.132"></polyline>
                <polyline id="Fill-105" fill="#060403" points="107.442 95.132 108.121 95.132 108.121 100.792 107.442 100.792 107.442 102.809 111.647 102.809 111.647 100.792 110.954 100.792 110.954 95.132 111.647 95.132 111.647 93.114 107.442 93.114 107.442 95.132"></polyline>
                <path d="M115.671,93.114 C114.862,93.114 113.995,93.129 113.424,93.786 C112.984,94.295 112.984,94.888 112.984,95.463 L112.984,100.6 C112.984,101.273 112.998,102.371 114.349,102.716 C114.762,102.81 115.171,102.81 115.599,102.81 L119.86,102.81 L119.86,99.24 L117.347,99.24 L117.347,100.793 L115.804,100.793 L115.804,95.133 L117.347,95.133 L117.347,96.246 L119.742,96.246 L119.742,93.114 L115.671,93.114" id="Fill-106" fill="#060403"></path>
                <polyline id="Fill-107" fill="#060403" points="126.808 93.114 124.752 97.317 124.752 93.114 121.227 93.114 121.227 95.133 121.899 95.133 121.899 100.793 121.227 100.793 121.227 102.81 124.752 102.81 124.752 99.103 126.267 99.103 126.267 102.81 129.809 102.81 129.809 100.793 129.043 100.793 129.043 97.317 127.264 97.317 128.574 95.133 129.5 95.133 129.5 93.114 126.808 93.114"></polyline>
                <polyline id="Fill-108" fill="#060403" points="130.846 95.132 131.521 95.132 131.521 100.792 130.846 100.792 130.846 102.809 138.327 102.809 138.327 99.541 135.801 99.541 135.801 100.792 134.302 100.792 134.302 98.758 136.417 98.758 136.417 96.974 134.302 96.974 134.302 95.132 135.801 95.132 135.801 96.288 138.165 96.288 138.165 93.114 130.846 93.114 130.846 95.132"></polyline>
                <path d="M145.926,93.114 L145.926,97.001 C145.926,97.756 145.926,97.962 146.014,98.787 C145.808,98.194 145.75,98.031 145.384,97.371 L143.06,93.114 L139.741,93.114 L139.741,95.133 L140.416,95.133 L140.416,100.793 L139.741,100.793 L139.741,102.81 L142.957,102.81 L142.898,98.087 C142.885,97.715 142.885,97.564 142.844,97.18 C143.06,97.823 143.135,98.019 143.677,99.034 L145.794,102.81 L149.099,102.81 L149.099,100.793 L148.425,100.793 L148.425,95.133 L149.099,95.133 L149.099,93.114 L145.926,93.114" id="Fill-109" fill="#060403"></path>
                <polyline id="Fill-110" fill="#060403" points="155.417 93.595 156.243 93.595 156.243 100.388 155.417 100.388 155.417 102.81 160.459 102.81 160.459 100.388 159.668 100.388 159.668 97.897 162.224 97.897 162.224 95.787 159.668 95.787 159.668 93.595 161.517 93.595 161.517 94.865 164.479 94.865 164.479 91.174 155.417 91.174 155.417 93.595"></polyline>
                <polyline id="Fill-111" fill="#060403" points="165.484 95.132 166.159 95.132 166.159 100.792 165.484 100.792 165.484 102.809 169.686 102.809 169.686 100.792 168.997 100.792 168.997 95.132 169.686 95.132 169.686 93.114 165.484 93.114 165.484 95.132"></polyline>
                <path d="M177.063,93.114 L177.063,97.001 C177.063,97.756 177.063,97.962 177.152,98.787 C176.947,98.194 176.888,98.031 176.52,97.371 L174.197,93.114 L170.876,93.114 L170.876,95.133 L171.551,95.133 L171.551,100.793 L170.876,100.793 L170.876,102.81 L174.094,102.81 L174.035,98.087 C174.022,97.715 174.022,97.564 173.977,97.18 C174.197,97.823 174.273,98.019 174.818,99.034 L176.932,102.81 L180.236,102.81 L180.236,100.793 L179.561,100.793 L179.561,95.133 L180.236,95.133 L180.236,93.114 L177.063,93.114" id="Fill-112" fill="#060403"></path>
                <path d="M183.839,93.101 C183.003,93.101 182.122,93.101 181.607,93.814 C181.268,94.295 181.268,94.941 181.268,95.49 L181.268,100.518 C181.268,101.34 181.313,102.013 182.05,102.467 C182.605,102.81 183.194,102.81 183.753,102.81 L188.425,102.81 L188.425,96.948 L184.899,96.948 L184.899,98.965 L185.748,98.965 L185.748,100.792 L184.134,100.792 L184.134,95.119 L185.748,95.119 L185.748,95.931 L188.305,95.931 L188.305,93.101 L183.839,93.101" id="Fill-113" fill="#060403"></path>
                <polyline id="Fill-114" fill="#060403" points="189.701 95.132 190.376 95.132 190.376 100.792 189.701 100.792 189.701 102.809 197.179 102.809 197.179 99.541 194.65 99.541 194.65 100.792 193.152 100.792 193.152 98.758 195.271 98.758 195.271 96.974 193.152 96.974 193.152 95.132 194.65 95.132 194.65 96.288 197.016 96.288 197.016 93.114 189.701 93.114 189.701 95.132"></polyline>
                <path d="M202.249,97.057 L203.835,97.057 L203.835,95.133 L202.249,95.133 L202.249,97.057 Z M198.739,95.132 L199.401,95.132 L199.401,100.792 L198.739,100.792 L198.739,102.81 L202.25,102.81 L202.25,98.87 L203.835,98.87 L203.835,101.807 C203.854,102.716 204.265,102.796 205.334,102.81 L207.292,102.81 L207.292,100.792 L206.602,100.792 L206.602,99.747 C206.585,99.309 206.556,98.855 206.206,98.444 C205.897,98.101 205.526,98.019 205.159,97.933 C206.631,97.482 206.644,96.631 206.644,95.352 C206.644,94.722 206.644,94.087 206.089,93.608 C205.526,93.129 204.779,93.129 204.146,93.115 L198.739,93.115 L198.739,95.132 L198.739,95.132 Z" id="Fill-115" fill="#060403"></path>
                <path d="M210.846,93.114 C210.256,93.114 209.538,93.129 208.992,93.65 C208.518,94.102 208.509,94.613 208.495,95.133 L208.495,96.739 C208.509,97.289 208.536,97.838 209.05,98.32 C209.579,98.828 210.225,98.828 210.829,98.843 L212.899,98.843 L212.899,100.793 L211.312,100.793 L211.312,99.843 L208.638,99.843 L208.638,102.81 L213.284,102.81 C213.798,102.81 214.281,102.81 214.767,102.565 C215.707,102.098 215.707,101.218 215.723,100.558 L215.723,99.008 C215.723,98.444 215.723,97.701 214.973,97.248 C214.444,96.92 213.781,96.92 213.209,96.905 L211.312,96.905 L211.312,95.133 L212.899,95.133 L212.899,95.969 L215.416,95.969 L215.416,93.114 L210.846,93.114" id="Fill-116" fill="#060403"></path>
            </g>
        </g>
    </g>
</svg>
